<svg width="690" height="554" viewBox="0 0 690 554" fill="none" xmlns="http://www.w3.org/2000/svg">
<g filter="url(#filter0_d_119_42)">
<mask id="path-1-inside-1_119_42" fill="white">
<path d="M43.9932 47.9931C43.9932 34.7382 54.7383 23.9931 67.9932 23.9931H627.997C641.252 23.9931 651.997 34.7382 651.997 47.9931V466.208C651.997 479.463 641.251 490.208 627.997 490.208H67.9931C54.7383 490.208 43.9932 479.463 43.9932 466.208V47.9931Z"/>
</mask>
<path d="M43.9932 47.9931C43.9932 34.7382 54.7383 23.9931 67.9932 23.9931H627.997C641.252 23.9931 651.997 34.7382 651.997 47.9931V466.208C651.997 479.463 641.251 490.208 627.997 490.208H67.9931C54.7383 490.208 43.9932 479.463 43.9932 466.208V47.9931Z" fill="white" shape-rendering="crispEdges"/>
<path d="M67.9932 23.9931V25.1042H627.997V23.9931V22.8819H67.9932V23.9931ZM651.997 47.9931H650.886V466.208H651.997H653.108V47.9931H651.997ZM627.997 490.208V489.097H67.9931V490.208V491.319H627.997V490.208ZM43.9932 466.208H45.1043V47.9931H43.9932H42.8821V466.208H43.9932ZM67.9931 490.208V489.097C55.352 489.097 45.1043 478.85 45.1043 466.208H43.9932H42.8821C42.8821 480.077 54.1247 491.319 67.9931 491.319V490.208ZM651.997 466.208H650.886C650.886 478.85 640.638 489.097 627.997 489.097V490.208V491.319C641.865 491.319 653.108 480.077 653.108 466.208H651.997ZM627.997 23.9931V25.1042C640.638 25.1042 650.886 35.3519 650.886 47.9931H651.997H653.108C653.108 34.1246 641.865 22.8819 627.997 22.8819V23.9931ZM67.9932 23.9931V22.8819C54.1247 22.8819 42.8821 34.1246 42.8821 47.9931H43.9932H45.1043C45.1043 35.3519 55.352 25.1042 67.9932 25.1042V23.9931Z" fill="#E2E8F0" mask="url(#path-1-inside-1_119_42)"/>
<g clip-path="url(#clip0_119_42)">
<path d="M77.1006 73.1007C77.1006 64.2641 84.264 57.1007 93.1006 57.1007H602.889C611.725 57.1007 618.889 64.2641 618.889 73.1007V441.101C618.889 449.937 611.725 457.101 602.889 457.101H93.1006C84.264 457.101 77.1006 449.937 77.1006 441.101V73.1007Z" fill="url(#paint0_linear_119_42)"/>
<g opacity="0.8">
<path d="M222.986 257.101C269.653 210.434 311.319 210.434 347.986 257.101C384.653 303.767 426.319 303.767 472.986 257.101" stroke="#FDB913" stroke-width="8" stroke-linecap="round" stroke-dasharray="10 5"/>
</g>
<g filter="url(#filter1_dd_119_42)">
<path d="M155.99 181.139C155.99 172.302 163.153 165.139 171.99 165.139H523.983C532.819 165.139 539.983 172.302 539.983 181.139V333.045C539.983 341.882 532.819 349.045 523.983 349.045H171.989C163.153 349.045 155.99 341.882 155.99 333.045V181.139Z" fill="white" shape-rendering="crispEdges"/>
<g filter="url(#filter2_dd_119_42)">
<path d="M179.982 205.132C179.982 196.295 187.146 189.132 195.982 189.132H219.972C228.809 189.132 235.972 196.295 235.972 205.132V229.122C235.972 237.958 228.809 245.122 219.972 245.122H195.982C187.146 245.122 179.982 237.958 179.982 229.122V205.132Z" fill="#0A4D5C" shape-rendering="crispEdges"/>
<path d="M199.577 220.611L198.356 224.127H195.475L200.495 210.367H203.893L208.893 224.127H206.042L204.821 220.611H199.577ZM202.194 212.486C202.129 212.747 202.038 213.059 201.92 213.424C201.803 213.788 201.719 214.045 201.667 214.195L200.221 218.443H204.176L202.692 214.107C202.601 213.84 202.516 213.57 202.438 213.297C202.36 213.023 202.278 212.753 202.194 212.486ZM219.752 221.871V224.127H210.124V222.222C210.364 221.695 210.67 221.181 211.042 220.679C211.413 220.172 211.855 219.664 212.37 219.156C212.89 218.642 213.483 218.114 214.147 217.574C214.629 217.183 215.039 216.829 215.377 216.51C215.716 216.184 215.98 215.894 216.168 215.64C216.364 215.386 216.51 215.136 216.608 214.888C216.706 214.635 216.754 214.387 216.754 214.146C216.754 213.547 216.601 213.098 216.295 212.799C215.996 212.499 215.547 212.349 214.948 212.349C214.362 212.349 213.913 212.509 213.6 212.828C213.294 213.14 213.096 213.612 213.004 214.244L210.241 214.088C210.397 212.812 210.872 211.838 211.667 211.168C212.467 210.497 213.555 210.162 214.928 210.162C216.413 210.162 217.552 210.5 218.346 211.178C219.14 211.855 219.538 212.805 219.538 214.029C219.538 214.719 219.394 215.338 219.108 215.885C218.821 216.431 218.457 216.936 218.014 217.398C217.65 217.795 217.236 218.173 216.774 218.531C216.318 218.889 215.875 219.237 215.446 219.576C214.99 219.941 214.573 220.308 214.196 220.679C213.825 221.051 213.548 221.448 213.366 221.871H219.752Z" fill="white"/>
</g>
<path d="M258.949 206.491C260.519 206.491 261.606 205.706 262.21 204.135L264.469 204.988C263.982 206.183 263.267 207.074 262.324 207.66C261.386 208.24 260.261 208.53 258.949 208.53C257.625 208.53 256.497 208.278 255.565 207.774C254.634 207.264 253.922 206.529 253.429 205.568C252.943 204.607 252.7 203.453 252.7 202.105C252.7 200.746 252.934 199.597 253.403 198.66C253.872 197.722 254.563 197.01 255.477 196.524C256.391 196.032 257.51 195.786 258.835 195.786C260.288 195.786 261.471 196.079 262.385 196.665C263.3 197.245 263.941 198.1 264.31 199.231L262.025 199.855C261.832 199.234 261.451 198.742 260.883 198.379C260.32 198.009 259.655 197.825 258.887 197.825C257.716 197.825 256.825 198.188 256.216 198.915C255.612 199.641 255.31 200.705 255.31 202.105C255.31 203.054 255.448 203.854 255.723 204.505C256.005 205.155 256.415 205.65 256.954 205.99C257.499 206.324 258.164 206.491 258.949 206.491ZM275.261 203.59C275.261 205.132 274.834 206.341 273.978 207.22C273.123 208.093 271.939 208.53 270.427 208.53C268.945 208.53 267.782 208.09 266.938 207.212C266.094 206.333 265.673 205.126 265.673 203.59C265.673 202.061 266.094 200.86 266.938 199.987C267.782 199.108 268.963 198.669 270.48 198.669C272.033 198.669 273.217 199.093 274.031 199.943C274.851 200.787 275.261 202.003 275.261 203.59ZM272.677 203.59C272.677 202.46 272.493 201.639 272.124 201.13C271.755 200.62 271.219 200.365 270.515 200.365C269.765 200.365 269.203 200.634 268.828 201.174C268.453 201.707 268.265 202.512 268.265 203.59C268.265 204.651 268.447 205.46 268.81 206.016C269.179 206.567 269.71 206.842 270.401 206.842C271.163 206.842 271.731 206.573 272.106 206.034C272.487 205.489 272.677 204.674 272.677 203.59ZM279.7 203.257V208.354H277.23V200.971C277.23 200.462 277.221 200.046 277.204 199.723C277.192 199.395 277.177 199.102 277.16 198.844H279.515C279.527 198.915 279.542 199.082 279.559 199.345C279.577 199.603 279.592 199.87 279.603 200.145C279.621 200.415 279.63 200.611 279.63 200.734H279.665C279.969 200.007 280.347 199.48 280.799 199.152C281.256 198.824 281.801 198.66 282.433 198.66C283.16 198.66 283.743 198.833 284.182 199.178C284.628 199.524 284.927 200.043 285.079 200.734H285.132C285.454 199.996 285.841 199.465 286.292 199.143C286.743 198.821 287.317 198.66 288.014 198.66C288.94 198.66 289.646 198.976 290.133 199.609C290.619 200.236 290.862 201.138 290.862 202.316V208.354H288.41V203.019C288.41 202.181 288.29 201.554 288.05 201.138C287.809 200.722 287.449 200.514 286.969 200.514C286.488 200.514 286.087 200.749 285.764 201.217C285.442 201.68 285.281 202.322 285.281 203.142V208.354H282.829V203.019C282.829 202.181 282.709 201.554 282.469 201.138C282.228 200.722 281.868 200.514 281.387 200.514C280.889 200.514 280.482 200.769 280.166 201.279C279.855 201.789 279.7 202.448 279.7 203.257ZM302.244 203.555C302.244 205.143 301.925 206.371 301.286 207.238C300.653 208.099 299.757 208.53 298.596 208.53C297.219 208.53 296.259 207.967 295.714 206.842H295.661C295.696 207.018 295.714 207.551 295.714 208.442V212.09H293.244V201.033C293.244 200.582 293.238 200.174 293.226 199.811C293.215 199.448 293.197 199.126 293.174 198.844H295.573C295.596 198.915 295.614 199.035 295.626 199.205C295.643 199.369 295.655 199.556 295.661 199.767C295.673 199.978 295.678 200.186 295.678 200.391H295.714C295.989 199.805 296.382 199.369 296.891 199.082C297.401 198.789 298.022 198.642 298.755 198.642C299.862 198.642 300.72 199.07 301.33 199.925C301.939 200.775 302.244 201.985 302.244 203.555ZM299.669 203.555C299.669 202.489 299.505 201.689 299.177 201.156C298.854 200.623 298.365 200.356 297.709 200.356C297.052 200.356 296.549 200.643 296.197 201.217C295.851 201.792 295.678 202.594 295.678 203.626C295.678 204.651 295.851 205.445 296.197 206.007C296.549 206.564 297.047 206.842 297.691 206.842C298.353 206.842 298.848 206.57 299.177 206.025C299.505 205.474 299.669 204.651 299.669 203.555ZM310.295 206.465C309.967 207.185 309.548 207.71 309.038 208.038C308.534 208.366 307.933 208.53 307.236 208.53C306.228 208.53 305.455 208.222 304.916 207.607C304.377 206.986 304.107 206.078 304.107 204.882V198.844H306.577V204.179C306.577 205.011 306.718 205.638 306.999 206.06C307.28 206.476 307.702 206.684 308.264 206.684C308.862 206.684 309.343 206.429 309.706 205.92C310.075 205.404 310.26 204.745 310.26 203.942V198.844H312.729V206.227C312.729 206.632 312.735 207.012 312.747 207.37C312.759 207.721 312.776 208.049 312.8 208.354H310.444C310.409 207.932 310.383 207.563 310.365 207.247C310.347 206.93 310.339 206.67 310.339 206.465H310.295ZM319.769 208.214C319.172 208.413 318.477 208.512 317.686 208.512C316.96 208.512 316.4 208.316 316.008 207.924C315.615 207.525 315.419 206.924 315.419 206.122V200.514H314.215V198.844H315.542L316.315 196.612H317.862V198.844H319.664V200.514H317.862V205.454C317.862 205.917 317.95 206.259 318.126 206.482C318.302 206.699 318.574 206.807 318.943 206.807C319.119 206.807 319.394 206.766 319.769 206.684V208.214ZM323.285 204.074C323.285 205 323.455 205.7 323.795 206.174C324.14 206.643 324.63 206.878 325.262 206.878C325.696 206.878 326.051 206.784 326.326 206.596C326.607 206.403 326.803 206.119 326.915 205.744L329.244 205.946C328.57 207.669 327.202 208.53 325.139 208.53C323.71 208.53 322.611 208.108 321.844 207.264C321.076 206.415 320.692 205.178 320.692 203.555C320.692 201.985 321.082 200.778 321.861 199.934C322.64 199.09 323.745 198.669 325.175 198.669C326.54 198.669 327.583 199.123 328.303 200.031C329.024 200.933 329.385 202.257 329.385 204.004V204.074H323.285ZM326.994 202.527C326.947 201.759 326.762 201.185 326.44 200.804C326.118 200.418 325.684 200.224 325.139 200.224C324.559 200.224 324.111 200.426 323.795 200.831C323.484 201.235 323.32 201.8 323.302 202.527H326.994ZM333.735 203.687V208.354H331.265V201.077C331.265 200.555 331.257 200.122 331.239 199.776C331.227 199.424 331.213 199.114 331.195 198.844H333.551C333.562 198.897 333.574 199.014 333.586 199.196C333.597 199.378 333.609 199.583 333.621 199.811C333.633 200.034 333.641 200.245 333.647 200.444C333.659 200.643 333.665 200.787 333.665 200.875H333.7C333.934 200.218 334.148 199.747 334.342 199.46C334.529 199.184 334.752 198.982 335.01 198.853C335.267 198.724 335.59 198.66 335.976 198.66C336.293 198.66 336.548 198.704 336.741 198.792V200.857C336.348 200.769 335.997 200.725 335.686 200.725C335.071 200.725 334.591 200.974 334.245 201.472C333.905 201.97 333.735 202.709 333.735 203.687ZM352.473 206.35V208.354H343.236V195.97H345.829V206.35H352.473ZM356.49 208.53C355.57 208.53 354.852 208.281 354.337 207.783C353.821 207.279 353.563 206.573 353.563 205.665C353.563 204.68 353.883 203.933 354.521 203.424C355.166 202.914 356.097 202.647 357.316 202.624L359.364 202.589V202.105C359.364 201.484 359.256 201.024 359.039 200.725C358.822 200.421 358.468 200.268 357.975 200.268C357.518 200.268 357.181 200.374 356.965 200.585C356.754 200.79 356.622 201.132 356.569 201.613L353.994 201.49C354.316 199.609 355.678 198.669 358.081 198.669C359.282 198.669 360.208 198.965 360.858 199.556C361.509 200.148 361.834 200.989 361.834 202.079V205.542C361.834 206.075 361.892 206.444 362.01 206.649C362.133 206.848 362.335 206.948 362.616 206.948C362.803 206.948 362.985 206.93 363.161 206.895V208.231C362.856 208.307 362.595 208.363 362.379 208.398C362.162 208.439 361.895 208.46 361.579 208.46C360.958 208.46 360.498 208.307 360.199 208.003C359.906 207.698 359.73 207.25 359.672 206.658H359.619C359.273 207.279 358.84 207.748 358.318 208.064C357.797 208.375 357.187 208.53 356.49 208.53ZM359.364 203.951L358.098 203.968C357.518 203.998 357.111 204.059 356.877 204.153C356.636 204.258 356.452 204.417 356.323 204.628C356.2 204.839 356.138 205.12 356.138 205.471C356.138 205.923 356.241 206.259 356.446 206.482C356.657 206.699 356.935 206.807 357.281 206.807C357.668 206.807 358.022 206.702 358.344 206.491C358.661 206.28 358.91 205.99 359.092 205.621C359.273 205.246 359.364 204.85 359.364 204.434V203.951ZM373.312 203.564C373.312 205.134 372.996 206.356 372.363 207.229C371.736 208.096 370.837 208.53 369.665 208.53C368.991 208.53 368.408 208.383 367.916 208.09C367.424 207.798 367.046 207.376 366.782 206.825H366.764C366.764 206.96 366.759 207.135 366.747 207.352C366.735 207.569 366.72 207.774 366.703 207.967C366.685 208.155 366.665 208.284 366.641 208.354H364.242C364.265 208.079 364.283 207.762 364.295 207.405C364.306 207.042 364.312 206.634 364.312 206.183V195.311H366.782V198.95C366.782 199.208 366.776 199.465 366.764 199.723C366.759 199.981 366.753 200.239 366.747 200.497H366.782C367.057 199.887 367.45 199.43 367.96 199.126C368.469 198.821 369.091 198.669 369.823 198.669C370.948 198.669 371.809 199.096 372.407 199.952C373.01 200.801 373.312 202.006 373.312 203.564ZM370.737 203.564C370.737 202.486 370.579 201.686 370.262 201.165C369.946 200.643 369.457 200.382 368.795 200.382C368.127 200.382 367.617 200.664 367.265 201.226C366.92 201.783 366.747 202.589 366.747 203.643C366.747 204.651 366.917 205.436 367.257 205.999C367.602 206.561 368.109 206.842 368.777 206.842C369.433 206.842 369.923 206.57 370.245 206.025C370.573 205.48 370.737 204.66 370.737 203.564ZM388.359 206.324V208.354H379.693V206.64C379.91 206.166 380.185 205.703 380.519 205.252C380.853 204.795 381.252 204.338 381.715 203.881C382.183 203.418 382.717 202.943 383.314 202.457C383.748 202.105 384.117 201.786 384.422 201.499C384.726 201.206 384.964 200.945 385.134 200.716C385.309 200.488 385.441 200.262 385.529 200.04C385.617 199.811 385.661 199.589 385.661 199.372C385.661 198.833 385.523 198.428 385.248 198.159C384.978 197.889 384.574 197.755 384.035 197.755C383.508 197.755 383.103 197.898 382.822 198.185C382.547 198.466 382.368 198.891 382.286 199.46L379.799 199.319C379.939 198.171 380.367 197.295 381.082 196.691C381.802 196.088 382.781 195.786 384.017 195.786C385.353 195.786 386.379 196.09 387.094 196.7C387.808 197.309 388.166 198.165 388.166 199.266C388.166 199.887 388.037 200.444 387.779 200.936C387.521 201.428 387.193 201.882 386.795 202.299C386.467 202.656 386.094 202.996 385.678 203.318C385.268 203.64 384.87 203.954 384.483 204.258C384.073 204.587 383.698 204.918 383.358 205.252C383.024 205.586 382.775 205.943 382.611 206.324H388.359ZM398.361 202.158C398.361 204.25 398.001 205.835 397.28 206.913C396.565 207.991 395.49 208.53 394.054 208.53C392.636 208.53 391.573 208 390.864 206.939C390.155 205.873 389.801 204.279 389.801 202.158C389.801 199.984 390.137 198.379 390.811 197.341C391.491 196.304 392.595 195.786 394.125 195.786C395.59 195.786 396.662 196.316 397.342 197.377C398.021 198.437 398.361 200.031 398.361 202.158ZM395.883 202.158C395.883 201.045 395.833 200.166 395.733 199.521C395.634 198.871 395.455 198.408 395.197 198.132C394.939 197.857 394.576 197.719 394.107 197.719C393.609 197.719 393.225 197.86 392.956 198.141C392.692 198.417 392.51 198.88 392.411 199.53C392.317 200.174 392.27 201.05 392.27 202.158C392.27 203.265 392.32 204.144 392.42 204.795C392.525 205.439 392.707 205.899 392.965 206.174C393.228 206.45 393.597 206.588 394.072 206.588C394.775 206.588 395.253 206.248 395.505 205.568C395.757 204.888 395.883 203.752 395.883 202.158ZM408.618 206.517V208.354H400.242V206.517H403.309V198.071L400.339 199.925V197.983L403.441 195.97H405.779V206.517H408.618Z" fill="#0A4D5C"/>
<path d="M260.561 233.415C260.561 234.271 260.249 234.939 259.625 235.418C259 235.891 258.132 236.128 257.02 236.128H253.11V226.497H256.61C257.74 226.497 258.588 226.693 259.153 227.085C259.718 227.472 260.001 228.055 260.001 228.835C260.001 229.404 259.841 229.883 259.522 230.27C259.203 230.657 258.752 230.917 258.169 231.049C258.934 231.141 259.524 231.398 259.939 231.822C260.354 232.241 260.561 232.772 260.561 233.415ZM258.688 228.992C258.688 228.472 258.51 228.101 258.155 227.877C257.8 227.654 257.285 227.543 256.61 227.543H254.416V230.591H256.61C257.307 230.591 257.827 230.461 258.169 230.202C258.515 229.937 258.688 229.534 258.688 228.992ZM259.242 233.312C259.242 232.177 258.444 231.61 256.849 231.61H254.416V235.083H256.952C257.749 235.083 258.33 234.934 258.695 234.638C259.06 234.342 259.242 233.9 259.242 233.312ZM266.919 234.864C266.636 235.374 266.308 235.737 265.934 235.951C265.565 236.16 265.105 236.265 264.553 236.265C263.742 236.265 263.148 236.065 262.769 235.664C262.396 235.258 262.209 234.59 262.209 233.661V228.732H263.446V233.421C263.446 234.16 263.56 234.661 263.788 234.925C264.02 235.185 264.414 235.315 264.97 235.315C265.563 235.315 266.03 235.112 266.372 234.707C266.714 234.301 266.885 233.738 266.885 233.018V228.732H268.115V234.549C268.115 234.978 268.117 235.324 268.122 235.588C268.131 235.853 268.142 236.033 268.156 236.128H266.994C266.989 236.106 266.98 235.999 266.967 235.807C266.957 235.616 266.948 235.301 266.939 234.864H266.919ZM271.26 225.984V227.16H270.029V225.984H271.26ZM271.26 228.732V236.128H270.029V228.732H271.26ZM274.384 225.984V236.128H273.153V225.984H274.384ZM281.035 236.128C281.026 236.078 281.014 235.985 281.001 235.848C280.992 235.707 280.983 235.552 280.973 235.383C280.969 235.215 280.967 235.067 280.967 234.939H280.939C280.711 235.413 280.408 235.752 280.03 235.958C279.656 236.163 279.191 236.265 278.635 236.265C277.701 236.265 277.013 235.951 276.571 235.322C276.134 234.693 275.915 233.74 275.915 232.464C275.915 231.175 276.14 230.209 276.592 229.566C277.047 228.919 277.729 228.595 278.635 228.595C279.196 228.595 279.663 228.698 280.037 228.903C280.411 229.108 280.711 229.434 280.939 229.88H280.953L280.939 229.053V225.984H282.17V234.604C282.17 234.991 282.172 235.313 282.177 235.568C282.186 235.819 282.197 236.005 282.211 236.128H281.035ZM277.207 232.423C277.207 233.458 277.344 234.198 277.617 234.645C277.89 235.092 278.335 235.315 278.95 235.315C279.647 235.315 280.153 235.073 280.468 234.59C280.782 234.107 280.939 233.358 280.939 232.341C280.939 231.362 280.782 230.644 280.468 230.188C280.153 229.732 279.652 229.504 278.964 229.504C278.344 229.504 277.895 229.735 277.617 230.195C277.344 230.651 277.207 231.393 277.207 232.423ZM285.287 225.984V227.16H284.056V225.984H285.287ZM285.287 228.732V236.128H284.056V228.732H285.287ZM288.438 231.842V236.128H287.208V230.311C287.208 229.878 287.203 229.532 287.194 229.272C287.19 229.008 287.18 228.828 287.167 228.732H288.329C288.338 228.819 288.345 228.928 288.349 229.06C288.358 229.192 288.365 229.338 288.37 229.498C288.374 229.657 288.379 229.823 288.384 229.997H288.404C288.687 229.486 289.012 229.126 289.382 228.917C289.755 228.702 290.218 228.595 290.769 228.595C291.58 228.595 292.173 228.803 292.547 229.217C292.925 229.632 293.114 230.293 293.114 231.2V236.128H291.877V231.439C291.877 230.733 291.763 230.24 291.535 229.962C291.307 229.684 290.913 229.545 290.352 229.545C289.76 229.545 289.293 229.748 288.951 230.154C288.609 230.559 288.438 231.122 288.438 231.842ZM297.776 239.034C296.969 239.034 296.327 238.874 295.848 238.555C295.37 238.241 295.062 237.792 294.926 237.209L296.163 237.031C296.245 237.373 296.425 237.635 296.703 237.817C296.985 238.004 297.355 238.097 297.81 238.097C298.421 238.097 298.879 237.917 299.184 237.557C299.494 237.197 299.649 236.659 299.649 235.944V234.754H299.635C299.403 235.228 299.084 235.586 298.678 235.828C298.273 236.065 297.799 236.183 297.257 236.183C296.35 236.183 295.682 235.882 295.254 235.281C294.83 234.679 294.618 233.734 294.618 232.444C294.618 231.136 294.846 230.172 295.302 229.552C295.762 228.928 296.459 228.616 297.393 228.616C297.917 228.616 298.371 228.737 298.754 228.978C299.141 229.215 299.44 229.555 299.649 229.997H299.663C299.663 229.905 299.667 229.764 299.677 229.573C299.686 229.377 299.697 229.192 299.711 229.019C299.724 228.846 299.736 228.75 299.745 228.732H300.914C300.886 228.978 300.873 229.488 300.873 230.263V235.917C300.873 236.956 300.615 237.735 300.1 238.254C299.585 238.774 298.811 239.034 297.776 239.034ZM299.649 232.43C299.649 231.532 299.465 230.826 299.095 230.311C298.731 229.792 298.264 229.532 297.694 229.532C297.065 229.532 296.607 229.76 296.32 230.215C296.033 230.671 295.889 231.409 295.889 232.43C295.889 233.442 296.024 234.169 296.293 234.611C296.562 235.053 297.022 235.274 297.674 235.274C298.257 235.274 298.731 235.021 299.095 234.515C299.465 234.005 299.649 233.31 299.649 232.43ZM307.428 233.312L306.321 236.128H304.968L308.898 226.497H310.382L314.251 236.128H312.918L311.817 233.312H307.428ZM309.623 227.481C309.545 227.736 309.452 228.021 309.343 228.335C309.238 228.645 309.14 228.919 309.049 229.156L307.825 232.294H311.427L310.19 229.115C310.126 228.955 310.042 228.73 309.937 228.438C309.832 228.146 309.728 227.827 309.623 227.481ZM321.743 231.466C321.743 231.808 321.656 232.125 321.483 232.417C321.315 232.708 321.084 232.943 320.793 233.121C320.506 233.298 320.182 233.387 319.822 233.387C319.48 233.387 319.166 233.301 318.879 233.127C318.596 232.95 318.371 232.715 318.202 232.423C318.033 232.132 317.949 231.813 317.949 231.466C317.949 231.115 318.033 230.799 318.202 230.516C318.375 230.234 318.603 230.01 318.885 229.846C319.173 229.678 319.485 229.593 319.822 229.593C320.177 229.593 320.499 229.678 320.786 229.846C321.078 230.015 321.31 230.24 321.483 230.523C321.656 230.806 321.743 231.12 321.743 231.466ZM328.654 232.225V236.128H327.348V226.497H334.191V227.563H328.654V231.145H334.027V232.225H328.654ZM336.932 225.984V236.128H335.702V225.984H336.932ZM345.074 232.423C345.074 233.718 344.789 234.682 344.219 235.315C343.65 235.948 342.823 236.265 341.738 236.265C340.658 236.265 339.842 235.937 339.291 235.281C338.739 234.62 338.464 233.668 338.464 232.423C338.464 231.147 338.739 230.19 339.291 229.552C339.847 228.914 340.676 228.595 341.779 228.595C342.909 228.595 343.741 228.907 344.274 229.532C344.807 230.152 345.074 231.115 345.074 232.423ZM343.782 232.423C343.782 231.403 343.629 230.662 343.324 230.202C343.023 229.737 342.515 229.504 341.8 229.504C341.08 229.504 340.558 229.741 340.234 230.215C339.915 230.685 339.756 231.421 339.756 232.423C339.756 233.399 339.913 234.132 340.227 234.625C340.546 235.112 341.045 235.356 341.724 235.356C342.463 235.356 342.989 235.119 343.303 234.645C343.622 234.171 343.782 233.431 343.782 232.423ZM352.867 232.423C352.867 233.718 352.582 234.682 352.012 235.315C351.443 235.948 350.616 236.265 349.531 236.265C348.451 236.265 347.635 235.937 347.084 235.281C346.532 234.62 346.257 233.668 346.257 232.423C346.257 231.147 346.532 230.19 347.084 229.552C347.64 228.914 348.469 228.595 349.572 228.595C350.702 228.595 351.534 228.907 352.067 229.532C352.6 230.152 352.867 231.115 352.867 232.423ZM351.575 232.423C351.575 231.403 351.422 230.662 351.117 230.202C350.816 229.737 350.308 229.504 349.593 229.504C348.872 229.504 348.351 229.741 348.027 230.215C347.708 230.685 347.549 231.421 347.549 232.423C347.549 233.399 347.706 234.132 348.02 234.625C348.339 235.112 348.838 235.356 349.517 235.356C350.256 235.356 350.782 235.119 351.096 234.645C351.415 234.171 351.575 233.431 351.575 232.423ZM355.663 232.273V236.128H354.432V230.455C354.432 230.195 354.428 229.921 354.419 229.634C354.414 229.347 354.405 229.046 354.391 228.732H355.553C355.563 228.942 355.569 229.131 355.574 229.299C355.583 229.468 355.59 229.616 355.594 229.744C355.599 229.867 355.601 229.972 355.601 230.058C355.606 230.14 355.608 230.202 355.608 230.243H355.635C355.772 229.796 355.923 229.45 356.087 229.204C356.246 228.976 356.428 228.819 356.634 228.732C356.839 228.641 357.092 228.595 357.392 228.595C357.561 228.595 357.727 228.618 357.891 228.664V229.792C357.736 229.746 357.518 229.723 357.235 229.723C356.725 229.723 356.335 229.944 356.066 230.386C355.797 230.824 355.663 231.453 355.663 232.273ZM369.102 235.083V236.128H362.724V235.26C362.957 234.727 363.237 234.255 363.565 233.845C363.898 233.435 364.251 233.066 364.625 232.738C364.998 232.41 365.368 232.104 365.732 231.822C365.914 231.681 366.085 231.539 366.245 231.398C366.409 231.257 366.564 231.115 366.71 230.974C367.001 230.692 367.236 230.395 367.414 230.085C367.596 229.776 367.687 229.425 367.687 229.033C367.687 228.504 367.532 228.094 367.222 227.802C366.913 227.511 366.482 227.365 365.93 227.365C365.406 227.365 364.973 227.508 364.632 227.795C364.294 228.078 364.096 228.477 364.037 228.992L362.779 228.876C362.87 228.105 363.196 227.492 363.757 227.037C364.322 226.581 365.046 226.353 365.93 226.353C366.901 226.353 367.646 226.583 368.166 227.044C368.69 227.499 368.952 228.149 368.952 228.992C368.952 229.365 368.865 229.737 368.692 230.106C368.524 230.475 368.271 230.844 367.933 231.213C367.765 231.396 367.519 231.63 367.195 231.918C366.872 232.205 366.473 232.542 365.999 232.929C365.475 233.358 365.058 233.745 364.748 234.091C364.438 234.433 364.215 234.764 364.078 235.083H369.102Z" fill="#64808C"/>
<g clip-path="url(#clip1_119_42)">
<path d="M253.96 262.433L266.619 256.437L260.623 269.095L259.29 263.765L253.96 262.433Z" stroke="#0A4D5C" stroke-width="1.33247" stroke-linecap="round" stroke-linejoin="round"/>
</g>
<path d="M279.17 266.529V268.108H272.43V266.775C272.598 266.406 272.812 266.045 273.072 265.695C273.332 265.339 273.642 264.984 274.002 264.628C274.367 264.268 274.781 263.899 275.246 263.521C275.583 263.247 275.87 262.999 276.107 262.776C276.344 262.548 276.529 262.345 276.661 262.167C276.798 261.989 276.9 261.814 276.969 261.641C277.037 261.463 277.071 261.29 277.071 261.121C277.071 260.702 276.964 260.388 276.75 260.178C276.54 259.968 276.226 259.864 275.807 259.864C275.396 259.864 275.082 259.975 274.863 260.198C274.649 260.417 274.51 260.748 274.446 261.19L272.512 261.08C272.621 260.187 272.954 259.506 273.51 259.036C274.07 258.567 274.831 258.332 275.793 258.332C276.832 258.332 277.63 258.569 278.186 259.043C278.742 259.517 279.02 260.183 279.02 261.039C279.02 261.522 278.919 261.955 278.719 262.338C278.518 262.721 278.263 263.074 277.953 263.398C277.698 263.676 277.409 263.94 277.085 264.191C276.766 264.441 276.456 264.685 276.155 264.922C275.836 265.177 275.545 265.435 275.28 265.695C275.021 265.954 274.827 266.232 274.699 266.529H279.17ZM286.163 266.146V268.108H284.331V266.146H279.949V264.703L284.017 258.476H286.163V264.717H287.448V266.146H286.163ZM281.515 264.717H284.331V261.566C284.331 261.32 284.338 261.053 284.352 260.766C284.37 260.479 284.383 260.294 284.393 260.212C284.333 260.34 284.249 260.497 284.14 260.684C284.035 260.866 283.905 261.078 283.75 261.32L281.515 264.717ZM290.429 264.143V268.108H288.508V262.365C288.508 261.969 288.501 261.645 288.487 261.395C288.478 261.14 288.467 260.912 288.453 260.711H290.285C290.294 260.766 290.306 260.896 290.319 261.101C290.333 261.301 290.344 261.509 290.354 261.723C290.367 261.933 290.374 262.085 290.374 262.181H290.401C290.638 261.616 290.932 261.206 291.283 260.95C291.639 260.695 292.062 260.568 292.555 260.568C293.12 260.568 293.573 260.702 293.915 260.971C294.261 261.24 294.494 261.643 294.612 262.181H294.653C294.904 261.607 295.205 261.194 295.556 260.944C295.907 260.693 296.353 260.568 296.896 260.568C297.616 260.568 298.165 260.814 298.543 261.306C298.921 261.794 299.11 262.495 299.11 263.411V268.108H297.203V263.958C297.203 263.307 297.11 262.819 296.923 262.495C296.736 262.172 296.456 262.01 296.082 262.01C295.708 262.01 295.396 262.192 295.146 262.557C294.895 262.917 294.77 263.416 294.77 264.054V268.108H292.862V263.958C292.862 263.307 292.769 262.819 292.582 262.495C292.395 262.172 292.115 262.01 291.741 262.01C291.354 262.01 291.037 262.208 290.791 262.605C290.549 263.001 290.429 263.514 290.429 264.143ZM306.568 268.244C305.853 268.244 305.295 268.051 304.894 267.663C304.493 267.271 304.292 266.722 304.292 266.016C304.292 265.25 304.54 264.669 305.037 264.273C305.538 263.876 306.263 263.669 307.211 263.651L308.804 263.623V263.247C308.804 262.764 308.719 262.406 308.551 262.174C308.382 261.937 308.106 261.819 307.724 261.819C307.368 261.819 307.106 261.901 306.938 262.065C306.773 262.224 306.671 262.491 306.63 262.864L304.627 262.769C304.878 261.306 305.937 260.574 307.806 260.574C308.74 260.574 309.46 260.805 309.966 261.265C310.472 261.725 310.725 262.379 310.725 263.227V265.92C310.725 266.335 310.77 266.622 310.861 266.781C310.957 266.936 311.114 267.014 311.333 267.014C311.479 267.014 311.62 267 311.757 266.973V268.012C311.52 268.071 311.317 268.114 311.148 268.142C310.98 268.174 310.772 268.19 310.526 268.19C310.043 268.19 309.686 268.071 309.453 267.834C309.225 267.597 309.089 267.249 309.043 266.788H309.002C308.733 267.271 308.396 267.636 307.99 267.882C307.585 268.124 307.111 268.244 306.568 268.244ZM308.804 264.683L307.819 264.697C307.368 264.719 307.051 264.767 306.869 264.84C306.682 264.922 306.539 265.045 306.438 265.209C306.343 265.373 306.295 265.592 306.295 265.865C306.295 266.216 306.375 266.478 306.534 266.652C306.698 266.82 306.915 266.905 307.184 266.905C307.484 266.905 307.76 266.822 308.011 266.658C308.257 266.494 308.451 266.269 308.592 265.982C308.733 265.69 308.804 265.382 308.804 265.059V264.683ZM316.768 263.61L315.578 268.108H313.548L311.634 260.711H313.438L314.382 265.086C314.427 265.296 314.473 265.508 314.519 265.722C314.564 265.936 314.61 266.15 314.655 266.364C314.701 266.146 314.742 265.927 314.778 265.708C314.815 265.489 314.863 265.273 314.922 265.059L316.084 260.711H318.142L319.276 265.059C319.308 265.177 319.347 265.346 319.393 265.565C319.443 265.779 319.497 266.045 319.557 266.364C319.607 266.146 319.655 265.929 319.7 265.715C319.75 265.496 319.798 265.278 319.844 265.059L320.814 260.711H322.592L320.65 268.108H318.62L317.444 263.596C317.417 263.491 317.376 263.313 317.321 263.063C317.267 262.808 317.201 262.479 317.123 262.078C317.064 262.334 317.007 262.589 316.952 262.844C316.897 263.099 316.836 263.354 316.768 263.61ZM325.258 268.244C324.542 268.244 323.984 268.051 323.583 267.663C323.182 267.271 322.981 266.722 322.981 266.016C322.981 265.25 323.23 264.669 323.727 264.273C324.228 263.876 324.952 263.669 325.9 263.651L327.493 263.623V263.247C327.493 262.764 327.409 262.406 327.24 262.174C327.072 261.937 326.796 261.819 326.413 261.819C326.058 261.819 325.796 261.901 325.627 262.065C325.463 262.224 325.36 262.491 325.319 262.864L323.316 262.769C323.567 261.306 324.627 260.574 326.495 260.574C327.429 260.574 328.149 260.805 328.655 261.265C329.161 261.725 329.414 262.379 329.414 263.227V265.92C329.414 266.335 329.46 266.622 329.551 266.781C329.646 266.936 329.804 267.014 330.022 267.014C330.168 267.014 330.31 267 330.446 266.973V268.012C330.209 268.071 330.007 268.114 329.838 268.142C329.669 268.174 329.462 268.19 329.216 268.19C328.733 268.19 328.375 268.071 328.143 267.834C327.915 267.597 327.778 267.249 327.732 266.788H327.691C327.423 267.271 327.085 267.636 326.68 267.882C326.274 268.124 325.8 268.244 325.258 268.244ZM327.493 264.683L326.509 264.697C326.058 264.719 325.741 264.767 325.559 264.84C325.372 264.922 325.228 265.045 325.128 265.209C325.032 265.373 324.984 265.592 324.984 265.865C324.984 266.216 325.064 266.478 325.224 266.652C325.388 266.82 325.604 266.905 325.873 266.905C326.174 266.905 326.45 266.822 326.7 266.658C326.946 266.494 327.14 266.269 327.281 265.982C327.423 265.69 327.493 265.382 327.493 265.059V264.683ZM332.299 271.013C331.829 271.013 331.426 270.983 331.089 270.924V269.557C331.344 269.593 331.565 269.612 331.752 269.612C332.199 269.612 332.531 269.491 332.75 269.249C332.973 269.008 333.19 268.602 333.399 268.032L330.474 260.711H332.504L333.666 264.177C333.757 264.428 333.86 264.742 333.974 265.12C334.088 265.499 334.215 265.945 334.356 266.46C334.461 266.041 334.562 265.654 334.657 265.298C334.753 264.943 334.858 264.578 334.972 264.204L336.065 260.711H338.075L335.149 268.497C335.031 268.812 334.906 269.09 334.773 269.331C334.641 269.573 334.507 269.787 334.37 269.974C334.092 270.352 333.789 270.619 333.461 270.774C333.133 270.933 332.745 271.013 332.299 271.013Z" fill="#0A4D5C"/>
<g clip-path="url(#clip2_119_42)">
<path d="M360.339 269.761C364.018 269.761 367.001 266.778 367.001 263.099C367.001 259.419 364.018 256.437 360.339 256.437C356.659 256.437 353.676 259.419 353.676 263.099C353.676 266.778 356.659 269.761 360.339 269.761Z" stroke="#64808C" stroke-width="1.33247" stroke-linecap="round" stroke-linejoin="round"/>
<path d="M360.339 259.102V263.099L363.004 264.431" stroke="#64808C" stroke-width="1.33247" stroke-linecap="round" stroke-linejoin="round"/>
</g>
<path d="M379.429 267.062V268.108H373.393V267.062H375.847V259.652L373.673 261.203V260.041L375.949 258.476H377.084V267.062H379.429ZM386.21 263.822V268.108H384.986V262.29C384.986 261.857 384.982 261.511 384.973 261.251C384.968 260.987 384.959 260.807 384.945 260.711H386.107C386.117 260.811 386.126 260.934 386.135 261.08C386.144 261.226 386.151 261.379 386.155 261.538C386.16 261.693 386.162 261.839 386.162 261.976H386.183C386.447 261.452 386.75 261.087 387.092 260.882C387.434 260.677 387.851 260.574 388.343 260.574C388.903 260.574 389.345 260.686 389.669 260.909C389.997 261.133 390.225 261.488 390.353 261.976H390.373C390.628 261.479 390.936 261.121 391.296 260.903C391.66 260.684 392.1 260.574 392.615 260.574C393.363 260.574 393.905 260.777 394.242 261.183C394.584 261.588 394.755 262.254 394.755 263.179V268.108H393.538V263.418C393.538 262.703 393.44 262.208 393.244 261.935C393.048 261.661 392.695 261.525 392.185 261.525C391.647 261.525 391.228 261.725 390.927 262.126C390.631 262.523 390.482 263.088 390.482 263.822V268.108H389.266V263.418C389.266 262.703 389.168 262.208 388.972 261.935C388.776 261.661 388.423 261.525 387.912 261.525C387.388 261.525 386.973 261.725 386.668 262.126C386.363 262.527 386.21 263.092 386.21 263.822ZM397.845 257.963V259.139H396.614V257.963H397.845ZM397.845 260.711V268.108H396.614V260.711H397.845ZM400.996 263.822V268.108H399.766V262.29C399.766 261.857 399.761 261.511 399.752 261.251C399.747 260.987 399.738 260.807 399.725 260.711H400.887C400.896 260.798 400.903 260.907 400.907 261.039C400.916 261.171 400.923 261.317 400.928 261.477C400.932 261.636 400.937 261.803 400.941 261.976H400.962C401.244 261.465 401.57 261.105 401.939 260.896C402.313 260.682 402.776 260.574 403.327 260.574C404.138 260.574 404.731 260.782 405.104 261.197C405.483 261.611 405.672 262.272 405.672 263.179V268.108H404.435V263.418C404.435 262.712 404.321 262.22 404.093 261.942C403.865 261.664 403.471 261.525 402.91 261.525C402.318 261.525 401.851 261.727 401.509 262.133C401.167 262.539 400.996 263.101 400.996 263.822Z" fill="#64808C"/>
<g clip-path="url(#clip3_119_42)">
<path d="M179.982 295.078C179.982 291.765 182.668 289.08 185.981 289.08H509.991C513.304 289.08 515.989 291.765 515.989 295.078V295.078C515.989 298.391 513.304 301.076 509.991 301.076H185.981C182.668 301.076 179.982 298.391 179.982 295.078V295.078Z" fill="#F1F5F9"/>
<g opacity="0.529172">
<path d="M179.982 295.078C179.982 291.765 182.668 289.08 185.981 289.08H397.977C401.29 289.08 403.975 291.765 403.975 295.078V295.078C403.975 298.391 401.29 301.076 397.977 301.076H185.981C182.668 301.076 179.982 298.391 179.982 295.078V295.078Z" fill="#0A4D5C"/>
</g>
</g>
<path d="M182.086 315.606V318.951H180.967V310.696H186.832V311.61H182.086V314.68H186.691V315.606H182.086ZM193.488 315.776C193.488 316.885 193.244 317.711 192.756 318.254C192.268 318.797 191.559 319.069 190.629 319.069C189.703 319.069 189.004 318.787 188.531 318.225C188.059 317.658 187.822 316.842 187.822 315.776C187.822 314.682 188.059 313.862 188.531 313.315C189.008 312.768 189.719 312.494 190.664 312.494C191.633 312.494 192.346 312.762 192.803 313.297C193.26 313.828 193.488 314.655 193.488 315.776ZM192.381 315.776C192.381 314.901 192.25 314.266 191.988 313.871C191.73 313.473 191.295 313.274 190.682 313.274C190.064 313.274 189.617 313.477 189.34 313.883C189.066 314.285 188.93 314.916 188.93 315.776C188.93 316.612 189.064 317.24 189.334 317.662C189.607 318.08 190.035 318.289 190.617 318.289C191.25 318.289 191.701 318.086 191.971 317.68C192.244 317.274 192.381 316.639 192.381 315.776ZM195.861 310.256V318.951H194.807V310.256H195.861ZM198.533 310.256V318.951H197.479V310.256H198.533ZM205.512 315.776C205.512 316.885 205.268 317.711 204.779 318.254C204.291 318.797 203.582 319.069 202.652 319.069C201.727 319.069 201.027 318.787 200.555 318.225C200.082 317.658 199.846 316.842 199.846 315.776C199.846 314.682 200.082 313.862 200.555 313.315C201.031 312.768 201.742 312.494 202.688 312.494C203.656 312.494 204.369 312.762 204.826 313.297C205.283 313.828 205.512 314.655 205.512 315.776ZM204.404 315.776C204.404 314.901 204.273 314.266 204.012 313.871C203.754 313.473 203.318 313.274 202.705 313.274C202.088 313.274 201.641 313.477 201.363 313.883C201.09 314.285 200.953 314.916 200.953 315.776C200.953 316.612 201.088 317.24 201.357 317.662C201.631 318.08 202.059 318.289 202.641 318.289C203.273 318.289 203.725 318.086 203.994 317.68C204.268 317.274 204.404 316.639 204.404 315.776ZM210.146 314.469L208.998 318.951H207.779L206.004 312.612H207.047L208.137 317C208.168 317.125 208.205 317.283 208.248 317.475C208.291 317.666 208.332 317.867 208.371 318.078C208.414 317.895 208.457 317.711 208.5 317.528C208.547 317.344 208.594 317.162 208.641 316.983L209.795 312.612H210.926L212.033 316.965C212.08 317.149 212.125 317.334 212.168 317.522C212.215 317.709 212.26 317.895 212.303 318.078C212.346 317.891 212.389 317.696 212.432 317.492C212.479 317.285 212.521 317.104 212.561 316.947L213.686 312.612H214.717L212.9 318.951H211.676L210.568 314.469C210.529 314.305 210.492 314.141 210.457 313.977C210.426 313.809 210.393 313.643 210.357 313.479C210.342 313.565 210.312 313.711 210.27 313.918C210.23 314.121 210.189 314.305 210.146 314.469ZM216.551 310.256V311.264H215.496V310.256H216.551ZM216.551 312.612V318.951H215.496V312.612H216.551ZM219.252 315.278V318.951H218.197V313.965C218.197 313.594 218.193 313.297 218.186 313.074C218.182 312.848 218.174 312.694 218.162 312.612H219.158C219.166 312.686 219.172 312.78 219.176 312.893C219.184 313.006 219.189 313.131 219.193 313.268C219.197 313.405 219.201 313.547 219.205 313.696H219.223C219.465 313.258 219.744 312.949 220.061 312.77C220.381 312.586 220.777 312.494 221.25 312.494C221.945 312.494 222.453 312.672 222.773 313.028C223.098 313.383 223.26 313.949 223.26 314.727V318.951H222.199V314.932C222.199 314.326 222.102 313.905 221.906 313.666C221.711 313.428 221.373 313.309 220.893 313.309C220.385 313.309 219.984 313.483 219.691 313.83C219.398 314.178 219.252 314.66 219.252 315.278ZM227.256 321.442C226.564 321.442 226.014 321.305 225.604 321.031C225.193 320.762 224.93 320.377 224.812 319.877L225.873 319.725C225.943 320.018 226.098 320.242 226.336 320.399C226.578 320.559 226.895 320.639 227.285 320.639C227.809 320.639 228.201 320.485 228.463 320.176C228.729 319.867 228.861 319.406 228.861 318.793V317.774H228.85C228.65 318.18 228.377 318.487 228.029 318.694C227.682 318.897 227.275 318.998 226.811 318.998C226.033 318.998 225.461 318.74 225.094 318.225C224.73 317.709 224.549 316.899 224.549 315.793C224.549 314.672 224.744 313.846 225.135 313.315C225.529 312.78 226.127 312.512 226.928 312.512C227.377 312.512 227.766 312.615 228.094 312.822C228.426 313.026 228.682 313.317 228.861 313.696H228.873C228.873 313.617 228.877 313.496 228.885 313.332C228.893 313.164 228.902 313.006 228.914 312.858C228.926 312.709 228.936 312.627 228.943 312.612H229.945C229.922 312.822 229.91 313.26 229.91 313.924V318.77C229.91 319.66 229.689 320.328 229.248 320.774C228.807 321.219 228.143 321.442 227.256 321.442ZM228.861 315.781C228.861 315.012 228.703 314.406 228.387 313.965C228.074 313.52 227.674 313.297 227.186 313.297C226.646 313.297 226.254 313.492 226.008 313.883C225.762 314.274 225.639 314.906 225.639 315.781C225.639 316.649 225.754 317.272 225.984 317.651C226.215 318.03 226.609 318.219 227.168 318.219C227.668 318.219 228.074 318.002 228.387 317.569C228.703 317.131 228.861 316.535 228.861 315.781ZM240.234 315.776C240.234 316.885 239.99 317.711 239.502 318.254C239.014 318.797 238.305 319.069 237.375 319.069C236.449 319.069 235.75 318.787 235.277 318.225C234.805 317.658 234.568 316.842 234.568 315.776C234.568 314.682 234.805 313.862 235.277 313.315C235.754 312.768 236.465 312.494 237.41 312.494C238.379 312.494 239.092 312.762 239.549 313.297C240.006 313.828 240.234 314.655 240.234 315.776ZM239.127 315.776C239.127 314.901 238.996 314.266 238.734 313.871C238.477 313.473 238.041 313.274 237.428 313.274C236.811 313.274 236.363 313.477 236.086 313.883C235.812 314.285 235.676 314.916 235.676 315.776C235.676 316.612 235.811 317.24 236.08 317.662C236.354 318.08 236.781 318.289 237.363 318.289C237.996 318.289 238.447 318.086 238.717 317.68C238.99 317.274 239.127 316.639 239.127 315.776ZM246.914 315.752C246.914 316.858 246.719 317.688 246.328 318.242C245.941 318.793 245.359 319.069 244.582 319.069C243.605 319.069 242.949 318.701 242.613 317.967H242.584C242.6 317.994 242.607 318.326 242.607 318.963V321.442H241.553V313.906C241.553 313.582 241.549 313.313 241.541 313.098C241.537 312.879 241.529 312.717 241.518 312.612H242.537C242.541 312.627 242.547 312.703 242.555 312.84C242.566 312.977 242.576 313.125 242.584 313.285C242.592 313.442 242.596 313.557 242.596 313.631H242.619C242.807 313.24 243.055 312.955 243.363 312.776C243.672 312.592 244.078 312.5 244.582 312.5C245.363 312.5 245.947 312.762 246.334 313.285C246.721 313.809 246.914 314.631 246.914 315.752ZM245.807 315.776C245.807 314.893 245.688 314.262 245.449 313.883C245.211 313.504 244.832 313.315 244.312 313.315C243.734 313.315 243.305 313.516 243.023 313.918C242.746 314.317 242.607 314.963 242.607 315.858C242.607 316.69 242.74 317.303 243.006 317.697C243.271 318.092 243.703 318.289 244.301 318.289C244.824 318.289 245.205 318.098 245.443 317.715C245.686 317.328 245.807 316.682 245.807 315.776ZM250.67 318.905C250.326 318.998 249.971 319.045 249.604 319.045C249.182 319.045 248.865 318.926 248.654 318.688C248.443 318.446 248.338 318.086 248.338 317.61V313.379H247.605V312.612H248.379L248.689 311.194H249.393V312.612H250.564V313.379H249.393V317.381C249.393 317.686 249.441 317.901 249.539 318.026C249.641 318.147 249.814 318.207 250.061 318.207C250.193 318.207 250.396 318.18 250.67 318.125V318.905ZM252.621 310.256V311.264H251.566V310.256H252.621ZM252.621 312.612V318.951H251.566V312.612H252.621ZM255.316 315.278V318.951H254.268V313.965C254.268 313.594 254.264 313.297 254.256 313.074C254.252 312.848 254.244 312.694 254.232 312.612H255.229C255.236 312.697 255.244 312.803 255.252 312.928C255.26 313.053 255.266 313.184 255.27 313.321C255.273 313.453 255.275 313.578 255.275 313.696H255.293C255.52 313.246 255.779 312.934 256.072 312.758C256.365 312.582 256.723 312.494 257.145 312.494C257.625 312.494 258.004 312.59 258.281 312.781C258.562 312.973 258.758 313.278 258.867 313.696H258.885C259.104 313.27 259.367 312.963 259.676 312.776C259.988 312.588 260.365 312.494 260.807 312.494C261.447 312.494 261.912 312.668 262.201 313.016C262.494 313.364 262.641 313.934 262.641 314.727V318.951H261.598V314.932C261.598 314.319 261.514 313.895 261.346 313.66C261.178 313.426 260.875 313.309 260.438 313.309C259.977 313.309 259.617 313.481 259.359 313.824C259.105 314.164 258.979 314.649 258.979 315.278V318.951H257.936V314.932C257.936 314.319 257.852 313.895 257.684 313.66C257.516 313.426 257.213 313.309 256.775 313.309C256.326 313.309 255.971 313.481 255.709 313.824C255.447 314.168 255.316 314.653 255.316 315.278ZM265.857 319.069C265.221 319.069 264.742 318.901 264.422 318.565C264.102 318.229 263.941 317.768 263.941 317.182C263.941 316.526 264.156 316.022 264.586 315.67C265.02 315.319 265.717 315.131 266.678 315.108L268.102 315.084V314.739C268.102 314.223 267.992 313.854 267.773 313.631C267.555 313.408 267.211 313.297 266.742 313.297C266.27 313.297 265.926 313.377 265.711 313.537C265.496 313.697 265.367 313.953 265.324 314.305L264.223 314.205C264.402 313.065 265.25 312.494 266.766 312.494C267.562 312.494 268.162 312.678 268.564 313.045C268.967 313.408 269.168 313.936 269.168 314.627V317.358C269.168 317.67 269.209 317.906 269.291 318.067C269.373 318.223 269.529 318.301 269.76 318.301C269.869 318.301 269.984 318.287 270.105 318.26V318.916C269.973 318.947 269.838 318.971 269.701 318.987C269.564 319.002 269.428 319.01 269.291 319.01C268.9 319.01 268.615 318.908 268.436 318.705C268.26 318.498 268.16 318.176 268.137 317.739H268.102C267.832 318.223 267.518 318.567 267.158 318.77C266.803 318.969 266.369 319.069 265.857 319.069ZM268.102 315.822L266.947 315.846C266.455 315.85 266.08 315.901 265.822 315.998C265.564 316.092 265.367 316.237 265.23 316.432C265.094 316.627 265.025 316.883 265.025 317.199C265.025 317.543 265.117 317.809 265.301 317.996C265.488 318.184 265.754 318.278 266.098 318.278C266.488 318.278 266.832 318.19 267.129 318.014C267.43 317.838 267.666 317.598 267.838 317.293C268.014 316.985 268.102 316.668 268.102 316.344V315.822ZM271.975 310.256V318.951H270.92V310.256H271.975ZM278.01 315.647V318.951H276.955V314.088C276.955 313.865 276.951 313.631 276.943 313.385C276.939 313.139 276.932 312.881 276.92 312.612H277.916C277.924 312.791 277.93 312.953 277.934 313.098C277.941 313.242 277.947 313.369 277.951 313.479C277.955 313.584 277.957 313.674 277.957 313.748C277.961 313.819 277.963 313.871 277.963 313.906H277.986C278.104 313.524 278.232 313.227 278.373 313.016C278.51 312.821 278.666 312.686 278.842 312.612C279.018 312.533 279.234 312.494 279.492 312.494C279.637 312.494 279.779 312.514 279.92 312.553V313.52C279.787 313.481 279.6 313.461 279.357 313.461C278.92 313.461 278.586 313.651 278.355 314.03C278.125 314.405 278.01 314.944 278.01 315.647ZM286.289 315.776C286.289 316.885 286.045 317.711 285.557 318.254C285.068 318.797 284.359 319.069 283.43 319.069C282.504 319.069 281.805 318.787 281.332 318.225C280.859 317.658 280.623 316.842 280.623 315.776C280.623 314.682 280.859 313.862 281.332 313.315C281.809 312.768 282.52 312.494 283.465 312.494C284.434 312.494 285.146 312.762 285.604 313.297C286.061 313.828 286.289 314.655 286.289 315.776ZM285.182 315.776C285.182 314.901 285.051 314.266 284.789 313.871C284.531 313.473 284.096 313.274 283.482 313.274C282.865 313.274 282.418 313.477 282.141 313.883C281.867 314.285 281.73 314.916 281.73 315.776C281.73 316.612 281.865 317.24 282.135 317.662C282.408 318.08 282.836 318.289 283.418 318.289C284.051 318.289 284.502 318.086 284.771 317.68C285.045 317.274 285.182 316.639 285.182 315.776ZM291.615 317.867C291.373 318.305 291.092 318.615 290.771 318.799C290.455 318.979 290.061 319.069 289.588 319.069C288.893 319.069 288.383 318.897 288.059 318.553C287.738 318.205 287.578 317.633 287.578 316.836V312.612H288.639V316.631C288.639 317.264 288.736 317.694 288.932 317.92C289.131 318.143 289.469 318.254 289.945 318.254C290.453 318.254 290.854 318.08 291.146 317.733C291.439 317.385 291.586 316.903 291.586 316.285V312.612H292.641V317.598C292.641 317.965 292.643 318.262 292.646 318.489C292.654 318.715 292.664 318.869 292.676 318.951H291.68C291.676 318.932 291.668 318.84 291.656 318.676C291.648 318.512 291.641 318.242 291.633 317.867H291.615ZM296.725 318.905C296.381 318.998 296.025 319.045 295.658 319.045C295.236 319.045 294.92 318.926 294.709 318.688C294.498 318.446 294.393 318.086 294.393 317.61V313.379H293.66V312.612H294.434L294.744 311.194H295.447V312.612H296.619V313.379H295.447V317.381C295.447 317.686 295.496 317.901 295.594 318.026C295.695 318.147 295.869 318.207 296.115 318.207C296.248 318.207 296.451 318.18 296.725 318.125V318.905ZM298.436 316.004C298.436 316.731 298.586 317.291 298.887 317.686C299.188 318.08 299.627 318.278 300.205 318.278C300.662 318.278 301.027 318.186 301.301 318.002C301.578 317.819 301.766 317.586 301.863 317.305L302.789 317.569C302.41 318.569 301.549 319.069 300.205 319.069C299.268 319.069 298.553 318.789 298.061 318.231C297.572 317.672 297.328 316.842 297.328 315.74C297.328 314.694 297.572 313.891 298.061 313.332C298.553 312.774 299.254 312.494 300.164 312.494C301.098 312.494 301.797 312.776 302.262 313.338C302.727 313.901 302.959 314.742 302.959 315.864V316.004H298.436ZM301.869 315.196C301.811 314.528 301.641 314.041 301.359 313.737C301.078 313.428 300.674 313.274 300.146 313.274C299.635 313.274 299.229 313.446 298.928 313.789C298.631 314.129 298.471 314.598 298.447 315.196H301.869ZM305.736 317.668V318.951H304.594V317.668H305.736ZM309.076 317.668V318.951H307.934V317.668H309.076ZM312.416 317.668V318.951H311.273V317.668H312.416Z" fill="#64808C"/>
</g>
</g>
</g>
<g filter="url(#filter3_dd_119_42)">
<mask id="path-18-inside-2_119_42" fill="white">
<path d="M20 16C20 7.16345 27.1634 0 36 0H196.934C205.771 0 212.934 7.16344 212.934 16V66.1875C212.934 75.0241 205.771 82.1875 196.934 82.1875H36C27.1634 82.1875 20 75.0241 20 66.1875V16Z"/>
</mask>
<path d="M20 16C20 7.16345 27.1634 0 36 0H196.934C205.771 0 212.934 7.16344 212.934 16V66.1875C212.934 75.0241 205.771 82.1875 196.934 82.1875H36C27.1634 82.1875 20 75.0241 20 66.1875V16Z" fill="white" shape-rendering="crispEdges"/>
<path d="M36 0V1.11111H196.934V0V-1.11111H36V0ZM212.934 16H211.823V66.1875H212.934H214.045V16H212.934ZM196.934 82.1875V81.0764H36V82.1875V83.2986H196.934V82.1875ZM20 66.1875H21.1111V16H20H18.8889V66.1875H20ZM36 82.1875V81.0764C27.7771 81.0764 21.1111 74.4104 21.1111 66.1875H20H18.8889C18.8889 75.6377 26.5498 83.2986 36 83.2986V82.1875ZM212.934 66.1875H211.823C211.823 74.4104 205.157 81.0764 196.934 81.0764V82.1875V83.2986C206.384 83.2986 214.045 75.6377 214.045 66.1875H212.934ZM196.934 0V1.11111C205.157 1.11111 211.823 7.77709 211.823 16H212.934H214.045C214.045 6.5498 206.384 -1.11111 196.934 -1.11111V0ZM36 0V-1.11111C26.5498 -1.11111 18.8889 6.5498 18.8889 16H20H21.1111C21.1111 7.7771 27.7771 1.11111 36 1.11111V0Z" fill="#E2E8F0" mask="url(#path-18-inside-2_119_42)"/>
<path d="M37.1006 41.0938C37.1006 27.8428 47.8426 17.1007 61.0936 17.1007V17.1007C74.3446 17.1007 85.0867 27.8428 85.0867 41.0938V41.0938C85.0867 54.3447 74.3446 65.0868 61.0936 65.0868V65.0868C47.8426 65.0868 37.1006 54.3447 37.1006 41.0938V41.0938Z" fill="#0A4D5C"/>
<path d="M51.7109 40.4219V47.0938H49.6641V36.0859H52.75L54.7188 42.2422C54.8073 42.5859 54.8984 42.9323 54.9922 43.2812C55.0859 43.625 55.1771 43.9688 55.2656 44.3125C55.3229 44.1146 55.3776 43.9193 55.4297 43.7266C55.4818 43.5286 55.5339 43.3307 55.5859 43.1328C55.6432 42.9349 55.7005 42.7396 55.7578 42.5469L57.7812 36.0859H60.8516V47.0938H58.8047V40.4219C58.8047 40.2708 58.8099 39.9688 58.8203 39.5156C58.8359 39.0573 58.8568 38.5599 58.8828 38.0234C58.7005 38.7214 58.5391 39.3151 58.3984 39.8047C58.263 40.2943 58.151 40.6771 58.0625 40.9531L56.0781 47.0938H54.4375L52.4531 40.9531L51.6172 38.0234C51.6484 38.6276 51.6719 39.1302 51.6875 39.5312C51.7031 39.9271 51.7109 40.224 51.7109 40.4219ZM65.6016 44.2812L64.625 47.0938H62.3203L66.3359 36.0859H69.0547L73.0547 47.0938H70.7734L69.7969 44.2812H65.6016ZM67.6953 37.7812C67.6432 37.9896 67.5703 38.2396 67.4766 38.5312C67.3828 38.8229 67.3151 39.0286 67.2734 39.1484L66.1172 42.5469H69.2812L68.0938 39.0781C68.0208 38.8646 67.9531 38.6484 67.8906 38.4297C67.8281 38.2109 67.763 37.9948 67.6953 37.7812Z" fill="white"/>
<path d="M106.606 33.2199C106.606 34.2499 106.405 35.1294 106.004 35.8586C105.608 36.5878 105.056 37.146 104.35 37.5334C103.648 37.9162 102.837 38.1076 101.916 38.1076H98.0198V28.4758H101.506C103.128 28.4758 104.384 28.886 105.273 29.7063C106.161 30.522 106.606 31.6932 106.606 33.2199ZM104.575 33.2199C104.575 32.1854 104.307 31.397 103.769 30.8547C103.231 30.3078 102.463 30.0344 101.465 30.0344H100.036V36.549H101.745C102.324 36.549 102.823 36.4146 103.242 36.1457C103.666 35.8723 103.994 35.4872 104.227 34.9904C104.459 34.4937 104.575 33.9035 104.575 33.2199ZM110.099 34.4778V38.1076H108.178V32.4475C108.178 32.0419 108.171 31.7046 108.157 31.4358C108.148 31.1623 108.137 30.9208 108.123 30.7112H109.955C109.964 30.7522 109.974 30.8433 109.983 30.9846C109.992 31.1259 110.001 31.2854 110.01 31.4631C110.019 31.6363 110.026 31.8003 110.031 31.9553C110.04 32.1102 110.044 32.2219 110.044 32.2903H110.072C110.254 31.7798 110.42 31.413 110.571 31.1897C110.716 30.9755 110.89 30.8182 111.09 30.718C111.291 30.6177 111.541 30.5676 111.842 30.5676C112.088 30.5676 112.286 30.6018 112.437 30.6701V32.2766C112.131 32.2082 111.858 32.174 111.616 32.174C111.138 32.174 110.764 32.3677 110.495 32.7551C110.231 33.1425 110.099 33.7167 110.099 34.4778ZM114.802 36.0227V38.1076H112.826V36.0227H114.802ZM122.397 32.2697V38.1076H120.606V28.4758H123.306L125.029 33.8625C125.106 34.1633 125.186 34.4664 125.268 34.7717C125.35 35.0725 125.43 35.3733 125.507 35.674C125.557 35.5009 125.605 35.33 125.651 35.1613C125.696 34.9882 125.742 34.815 125.787 34.6418C125.837 34.4686 125.888 34.2977 125.938 34.1291L127.708 28.4758H130.395V38.1076H128.604V32.2697C128.604 32.1376 128.608 31.8733 128.617 31.4768C128.631 31.0757 128.649 30.6405 128.672 30.1711C128.513 30.7818 128.371 31.3013 128.248 31.7297C128.13 32.1581 128.032 32.4931 127.954 32.7346L126.218 38.1076H124.782L123.046 32.7346L122.315 30.1711C122.342 30.6998 122.363 31.1395 122.376 31.4904C122.39 31.8368 122.397 32.0966 122.397 32.2697ZM139.336 34.4026C139.336 35.6011 139.003 36.5422 138.338 37.2258C137.673 37.9048 136.752 38.2444 135.576 38.2444C134.423 38.2444 133.519 37.9026 132.863 37.219C132.206 36.5354 131.878 35.5966 131.878 34.4026C131.878 33.2131 132.206 32.2789 132.863 31.5998C133.519 30.9162 134.437 30.5744 135.617 30.5744C136.825 30.5744 137.746 30.9048 138.379 31.5656C139.017 32.2219 139.336 33.1675 139.336 34.4026ZM137.326 34.4026C137.326 33.523 137.183 32.885 136.896 32.4885C136.609 32.092 136.192 31.8938 135.645 31.8938C135.061 31.8938 134.624 32.1034 134.332 32.5227C134.041 32.9374 133.895 33.564 133.895 34.4026C133.895 35.2274 134.036 35.8563 134.319 36.2893C134.606 36.7177 135.018 36.9319 135.556 36.9319C136.148 36.9319 136.59 36.7222 136.882 36.3029C137.178 35.8791 137.326 35.2457 137.326 34.4026ZM142.761 32.1877C143.021 31.6226 143.347 31.2125 143.739 30.9572C144.13 30.702 144.598 30.5744 145.14 30.5744C145.924 30.5744 146.525 30.816 146.945 31.299C147.364 31.7821 147.573 32.4885 147.573 33.4182V38.1076H145.659V33.9651C145.659 33.3134 145.55 32.8257 145.331 32.5022C145.113 32.1786 144.782 32.0168 144.34 32.0168C143.875 32.0168 143.499 32.2173 143.212 32.6184C142.93 33.0149 142.788 33.5253 142.788 34.1496V38.1076H140.867V27.9631H142.788V30.7317C142.788 30.8957 142.786 31.0598 142.781 31.2238C142.777 31.3879 142.77 31.5497 142.761 31.7092C142.756 31.8687 142.747 32.0282 142.734 32.1877H142.761ZM151.135 38.2444C150.42 38.2444 149.861 38.0507 149.46 37.6633C149.059 37.2714 148.859 36.7222 148.859 36.0158C148.859 35.2502 149.107 34.6692 149.604 34.2727C150.105 33.8762 150.83 33.6688 151.778 33.6506L153.37 33.6233V33.2473C153.37 32.7642 153.286 32.4065 153.117 32.174C152.949 31.9371 152.673 31.8186 152.29 31.8186C151.935 31.8186 151.673 31.9006 151.504 32.0647C151.34 32.2242 151.238 32.4908 151.197 32.8645L149.194 32.7688C149.444 31.3059 150.504 30.5744 152.372 30.5744C153.307 30.5744 154.027 30.8046 154.532 31.2649C155.038 31.7251 155.291 32.3791 155.291 33.2268V35.9201C155.291 36.3348 155.337 36.622 155.428 36.7815C155.524 36.9364 155.681 37.0139 155.9 37.0139C156.045 37.0139 156.187 37.0002 156.323 36.9729V38.0119C156.087 38.0712 155.884 38.1145 155.715 38.1418C155.546 38.1737 155.339 38.1897 155.093 38.1897C154.61 38.1897 154.252 38.0712 154.02 37.8342C153.792 37.5972 153.655 37.2486 153.61 36.7883H153.569C153.3 37.2714 152.962 37.636 152.557 37.882C152.151 38.1236 151.677 38.2444 151.135 38.2444ZM153.37 34.6828L152.386 34.6965C151.935 34.7193 151.618 34.7671 151.436 34.8401C151.249 34.9221 151.105 35.0451 151.005 35.2092C150.909 35.3733 150.862 35.592 150.862 35.8654C150.862 36.2164 150.941 36.4784 151.101 36.6516C151.265 36.8202 151.481 36.9045 151.75 36.9045C152.051 36.9045 152.327 36.8225 152.577 36.6584C152.823 36.4944 153.017 36.2688 153.158 35.9817C153.3 35.69 153.37 35.3824 153.37 35.0588V34.6828ZM159.14 34.1428V38.1076H157.219V32.3654C157.219 31.969 157.212 31.6454 157.198 31.3947C157.189 31.1395 157.178 30.9117 157.164 30.7112H158.996C159.005 30.7658 159.017 30.8957 159.031 31.1008C159.044 31.3013 159.056 31.5087 159.065 31.7229C159.078 31.9325 159.085 32.0852 159.085 32.1809H159.113C159.35 31.6158 159.643 31.2056 159.994 30.9504C160.35 30.6952 160.774 30.5676 161.266 30.5676C161.831 30.5676 162.284 30.702 162.626 30.9709C162.973 31.2398 163.205 31.6431 163.323 32.1809H163.365C163.615 31.6067 163.916 31.1942 164.267 30.9436C164.618 30.6929 165.064 30.5676 165.607 30.5676C166.327 30.5676 166.876 30.8137 167.254 31.3059C167.632 31.7935 167.822 32.4953 167.822 33.4113V38.1076H165.914V33.9582C165.914 33.3065 165.821 32.8189 165.634 32.4953C165.447 32.1718 165.167 32.01 164.793 32.01C164.42 32.01 164.107 32.1923 163.857 32.5569C163.606 32.9169 163.481 33.4159 163.481 34.0539V38.1076H161.573V33.9582C161.573 33.3065 161.48 32.8189 161.293 32.4953C161.106 32.1718 160.826 32.01 160.452 32.01C160.065 32.01 159.748 32.2082 159.502 32.6047C159.261 33.0012 159.14 33.5139 159.14 34.1428ZM171.595 34.1428V38.1076H169.674V32.3654C169.674 31.969 169.667 31.6454 169.654 31.3947C169.644 31.1395 169.633 30.9117 169.619 30.7112H171.451C171.461 30.7658 171.472 30.8957 171.486 31.1008C171.499 31.3013 171.511 31.5087 171.52 31.7229C171.533 31.9325 171.54 32.0852 171.54 32.1809H171.568C171.805 31.6158 172.099 31.2056 172.449 30.9504C172.805 30.6952 173.229 30.5676 173.721 30.5676C174.286 30.5676 174.74 30.702 175.081 30.9709C175.428 31.2398 175.66 31.6431 175.779 32.1809H175.82C176.07 31.6067 176.371 31.1942 176.722 30.9436C177.073 30.6929 177.519 30.5676 178.062 30.5676C178.782 30.5676 179.331 30.8137 179.709 31.3059C180.087 31.7935 180.277 32.4953 180.277 33.4113V38.1076H178.369V33.9582C178.369 33.3065 178.276 32.8189 178.089 32.4953C177.902 32.1718 177.622 32.01 177.248 32.01C176.875 32.01 176.562 32.1923 176.312 32.5569C176.061 32.9169 175.936 33.4159 175.936 34.0539V38.1076H174.029V33.9582C174.029 33.3065 173.935 32.8189 173.748 32.4953C173.561 32.1718 173.281 32.01 172.907 32.01C172.52 32.01 172.203 32.2082 171.957 32.6047C171.716 33.0012 171.595 33.5139 171.595 34.1428ZM183.715 34.7785C183.715 35.4986 183.847 36.0432 184.112 36.4123C184.38 36.7769 184.761 36.9592 185.253 36.9592C185.59 36.9592 185.866 36.8863 186.08 36.7404C186.299 36.5901 186.452 36.369 186.538 36.0774L188.35 36.2346C187.826 37.5744 186.762 38.2444 185.157 38.2444C184.045 38.2444 183.191 37.9162 182.594 37.26C181.997 36.5992 181.698 35.6376 181.698 34.3752C181.698 33.1539 182.002 32.2151 182.608 31.5588C183.214 30.9026 184.073 30.5744 185.185 30.5744C186.247 30.5744 187.058 30.9276 187.618 31.634C188.179 32.3358 188.459 33.3658 188.459 34.7238V34.7785H183.715ZM186.6 33.5754C186.563 32.9784 186.42 32.5318 186.169 32.2356C185.919 31.9348 185.581 31.7844 185.157 31.7844C184.706 31.7844 184.358 31.9416 184.112 32.2561C183.87 32.5705 183.742 33.0103 183.729 33.5754H186.6ZM194.714 38.1076C194.705 38.0621 194.691 37.9664 194.673 37.8205C194.655 37.6747 194.639 37.5152 194.625 37.342C194.616 37.1688 194.612 37.023 194.612 36.9045H194.584C194.375 37.3511 194.074 37.6861 193.682 37.9094C193.29 38.1327 192.802 38.2444 192.219 38.2444C191.358 38.2444 190.692 37.9094 190.223 37.2395C189.753 36.565 189.519 35.6239 189.519 34.4162C189.519 33.1903 189.765 32.2447 190.257 31.5793C190.754 30.9094 191.456 30.5744 192.363 30.5744C192.887 30.5744 193.338 30.6838 193.716 30.9026C194.099 31.1213 194.393 31.4472 194.598 31.8801H194.612L194.598 30.6633V27.9631H196.519V36.4944C196.519 36.7222 196.523 36.9706 196.532 37.2395C196.542 37.5084 196.555 37.7977 196.573 38.1076H194.714ZM191.522 34.4162C191.522 35.2548 191.647 35.8837 191.898 36.3029C192.153 36.7222 192.531 36.9319 193.032 36.9319C193.538 36.9319 193.93 36.7108 194.208 36.2688C194.486 35.8222 194.625 35.1887 194.625 34.3684C194.625 33.5709 194.491 32.9579 194.222 32.5295C193.958 32.0966 193.566 31.8801 193.046 31.8801C192.531 31.8801 192.148 32.0897 191.898 32.509C191.647 32.9237 191.522 33.5595 191.522 34.4162Z" fill="#0A4D5C"/>
<path d="M97.0833 51.0851C97.0833 48.8798 98.871 47.092 101.076 47.092V47.092C103.282 47.092 105.069 48.8798 105.069 51.0851V51.0851C105.069 53.2904 103.282 55.0781 101.076 55.0781V55.0781C98.871 55.0781 97.0833 53.2904 97.0833 51.0851V51.0851Z" fill="#00C950"/>
<path d="M111.195 50.5651L110.246 52.9792H109.086L112.455 44.7233H113.727L117.043 52.9792H115.9L114.957 50.5651H111.195ZM113.076 45.5671C113.01 45.7858 112.93 46.03 112.836 46.2995C112.746 46.5651 112.662 46.7995 112.584 47.0026L111.535 49.6921H114.623L113.562 46.9675C113.508 46.8307 113.436 46.6374 113.346 46.3874C113.256 46.1374 113.166 45.8639 113.076 45.5671ZM122.803 46.6393L120.436 52.9792H119.188L116.885 46.6393H118.01L119.404 50.7643C119.432 50.8425 119.479 50.9987 119.545 51.2331C119.611 51.4635 119.699 51.7702 119.809 52.153C119.859 52.0007 119.908 51.8425 119.955 51.6784C120.006 51.5104 120.055 51.3483 120.102 51.1921C120.152 51.0358 120.199 50.8971 120.242 50.776L121.684 46.6393H122.803ZM125.27 53.0964C124.633 53.0964 124.154 52.9284 123.834 52.5925C123.514 52.2565 123.354 51.7956 123.354 51.2096C123.354 50.5534 123.568 50.0495 123.998 49.6979C124.432 49.3464 125.129 49.1589 126.09 49.1354L127.514 49.112V48.7663C127.514 48.2507 127.404 47.8815 127.186 47.6589C126.967 47.4362 126.623 47.3249 126.154 47.3249C125.682 47.3249 125.338 47.405 125.123 47.5651C124.908 47.7253 124.779 47.9811 124.736 48.3327L123.635 48.2331C123.814 47.0925 124.662 46.5221 126.178 46.5221C126.975 46.5221 127.574 46.7057 127.977 47.0729C128.379 47.4362 128.58 47.9635 128.58 48.655V51.3854C128.58 51.6979 128.621 51.9342 128.703 52.0944C128.785 52.2507 128.941 52.3288 129.172 52.3288C129.281 52.3288 129.396 52.3151 129.518 52.2878V52.944C129.385 52.9753 129.25 52.9987 129.113 53.0143C128.977 53.03 128.84 53.0378 128.703 53.0378C128.312 53.0378 128.027 52.9362 127.848 52.7331C127.672 52.526 127.572 52.2038 127.549 51.7663H127.514C127.244 52.2507 126.93 52.5944 126.57 52.7975C126.215 52.9967 125.781 53.0964 125.27 53.0964ZM127.514 49.8503L126.359 49.8737C125.867 49.8776 125.492 49.9284 125.234 50.026C124.977 50.1198 124.779 50.2643 124.643 50.4596C124.506 50.655 124.438 50.9108 124.438 51.2272C124.438 51.571 124.529 51.8366 124.713 52.0241C124.9 52.2116 125.166 52.3053 125.51 52.3053C125.9 52.3053 126.244 52.2175 126.541 52.0417C126.842 51.8659 127.078 51.6257 127.25 51.321C127.426 51.0124 127.514 50.696 127.514 50.3717V49.8503ZM131.381 44.2839V45.2917H130.326V44.2839H131.381ZM131.381 46.6393V52.9792H130.326V46.6393H131.381ZM134.059 44.2839V52.9792H133.004V44.2839H134.059ZM137.293 53.0964C136.656 53.0964 136.178 52.9284 135.857 52.5925C135.537 52.2565 135.377 51.7956 135.377 51.2096C135.377 50.5534 135.592 50.0495 136.021 49.6979C136.455 49.3464 137.152 49.1589 138.113 49.1354L139.537 49.112V48.7663C139.537 48.2507 139.428 47.8815 139.209 47.6589C138.99 47.4362 138.646 47.3249 138.178 47.3249C137.705 47.3249 137.361 47.405 137.146 47.5651C136.932 47.7253 136.803 47.9811 136.76 48.3327L135.658 48.2331C135.838 47.0925 136.686 46.5221 138.201 46.5221C138.998 46.5221 139.598 46.7057 140 47.0729C140.402 47.4362 140.604 47.9635 140.604 48.655V51.3854C140.604 51.6979 140.645 51.9342 140.727 52.0944C140.809 52.2507 140.965 52.3288 141.195 52.3288C141.305 52.3288 141.42 52.3151 141.541 52.2878V52.944C141.408 52.9753 141.273 52.9987 141.137 53.0143C141 53.03 140.863 53.0378 140.727 53.0378C140.336 53.0378 140.051 52.9362 139.871 52.7331C139.695 52.526 139.596 52.2038 139.572 51.7663H139.537C139.268 52.2507 138.953 52.5944 138.594 52.7975C138.238 52.9967 137.805 53.0964 137.293 53.0964ZM139.537 49.8503L138.383 49.8737C137.891 49.8776 137.516 49.9284 137.258 50.026C137 50.1198 136.803 50.2643 136.666 50.4596C136.529 50.655 136.461 50.9108 136.461 51.2272C136.461 51.571 136.553 51.8366 136.736 52.0241C136.924 52.2116 137.189 52.3053 137.533 52.3053C137.924 52.3053 138.268 52.2175 138.564 52.0417C138.865 51.8659 139.102 51.6257 139.273 51.321C139.449 51.0124 139.537 50.696 139.537 50.3717V49.8503ZM147.717 49.78C147.717 50.8854 147.521 51.7155 147.131 52.2702C146.744 52.821 146.162 53.0964 145.385 53.0964C144.904 53.0964 144.504 53.0104 144.184 52.8385C143.867 52.6628 143.609 52.3815 143.41 51.9948H143.398C143.398 52.0729 143.395 52.1862 143.387 52.3346C143.379 52.4831 143.371 52.6217 143.363 52.7507C143.355 52.8757 143.348 52.9518 143.34 52.9792H142.32C142.332 52.8737 142.34 52.7135 142.344 52.4987C142.352 52.28 142.355 52.0046 142.355 51.6725V44.2839H143.41V46.7624C143.41 46.8874 143.408 47.026 143.404 47.1784C143.4 47.3268 143.395 47.487 143.387 47.6589H143.41C143.605 47.2526 143.863 46.9616 144.184 46.7858C144.508 46.61 144.908 46.5221 145.385 46.5221C146.186 46.5221 146.773 46.7917 147.148 47.3307C147.527 47.8698 147.717 48.6862 147.717 49.78ZM146.609 49.8151C146.609 48.9284 146.492 48.2936 146.258 47.9108C146.023 47.528 145.643 47.3366 145.115 47.3366C144.521 47.3366 144.088 47.5397 143.814 47.946C143.545 48.3522 143.41 48.9967 143.41 49.8796C143.41 50.7116 143.543 51.3268 143.809 51.7253C144.074 52.1198 144.506 52.3171 145.104 52.3171C145.635 52.3171 146.018 52.1217 146.252 51.7311C146.49 51.3366 146.609 50.6979 146.609 49.8151ZM150.09 44.2839V52.9792H149.035V44.2839H150.09ZM152.516 50.0319C152.516 50.7585 152.666 51.319 152.967 51.7135C153.268 52.1081 153.707 52.3053 154.285 52.3053C154.742 52.3053 155.107 52.2135 155.381 52.03C155.658 51.8464 155.846 51.6139 155.943 51.3327L156.869 51.5964C156.49 52.5964 155.629 53.0964 154.285 53.0964C153.348 53.0964 152.633 52.8171 152.141 52.2585C151.652 51.6999 151.408 50.8698 151.408 49.7682C151.408 48.7214 151.652 47.9186 152.141 47.36C152.633 46.8014 153.334 46.5221 154.244 46.5221C155.178 46.5221 155.877 46.8034 156.342 47.3659C156.807 47.9284 157.039 48.7702 157.039 49.8913V50.0319H152.516ZM155.949 49.2233C155.891 48.5553 155.721 48.069 155.439 47.7643C155.158 47.4557 154.754 47.3014 154.227 47.3014C153.715 47.3014 153.309 47.4733 153.008 47.8171C152.711 48.1569 152.551 48.6257 152.527 49.2233H155.949Z" fill="#64808C"/>
</g>
<g filter="url(#filter4_dd_119_42)">
<mask id="path-25-inside-3_119_42" fill="white">
<path d="M512.17 447.997C512.17 439.16 519.334 431.997 528.17 431.997H651.986C660.823 431.997 667.986 439.16 667.986 447.997V490.198C667.986 499.034 660.823 506.198 651.986 506.198H528.17C519.334 506.198 512.17 499.034 512.17 490.198V447.997Z"/>
</mask>
<path d="M512.17 447.997C512.17 439.16 519.334 431.997 528.17 431.997H651.986C660.823 431.997 667.986 439.16 667.986 447.997V490.198C667.986 499.034 660.823 506.198 651.986 506.198H528.17C519.334 506.198 512.17 499.034 512.17 490.198V447.997Z" fill="white" shape-rendering="crispEdges"/>
<path d="M528.17 431.997V433.108H651.986V431.997V430.885H528.17V431.997ZM667.986 447.997H666.875V490.198H667.986H669.098V447.997H667.986ZM651.986 506.198V505.087H528.17V506.198V507.309H651.986V506.198ZM512.17 490.198H513.282V447.997H512.17H511.059V490.198H512.17ZM528.17 506.198V505.087C519.948 505.087 513.282 498.421 513.282 490.198H512.17H511.059C511.059 499.648 518.72 507.309 528.17 507.309V506.198ZM667.986 490.198H666.875C666.875 498.421 660.209 505.087 651.986 505.087V506.198V507.309C661.437 507.309 669.098 499.648 669.098 490.198H667.986ZM651.986 431.997V433.108C660.209 433.108 666.875 439.774 666.875 447.997H667.986H669.098C669.098 438.546 661.437 430.885 651.986 430.885V431.997ZM528.17 431.997V430.885C518.72 430.885 511.059 438.546 511.059 447.997H512.17H513.282C513.282 439.774 519.948 433.108 528.17 433.108V431.997Z" fill="#E2E8F0" mask="url(#path-25-inside-3_119_42)"/>
<path d="M529.271 465.097C529.271 456.261 536.434 449.097 545.271 449.097H553.271C562.108 449.097 569.271 456.261 569.271 465.097V473.097C569.271 481.934 562.108 489.097 553.271 489.097H545.271C536.434 489.097 529.271 481.934 529.271 473.097V465.097Z" fill="#E8F4F8"/>
<path d="M543.354 475.014C540.104 471.764 540.104 466.431 543.354 463.181" stroke="#0A4D5C" stroke-width="1.66667" stroke-linecap="round" stroke-linejoin="round"/>
<path d="M545.771 472.597C543.854 470.681 543.854 467.514 545.771 465.514" stroke="#0A4D5C" stroke-width="1.66667" stroke-linecap="round" stroke-linejoin="round"/>
<path d="M549.271 470.764C550.191 470.764 550.938 470.018 550.938 469.097C550.938 468.177 550.191 467.431 549.271 467.431C548.35 467.431 547.604 468.177 547.604 469.097C547.604 470.018 548.35 470.764 549.271 470.764Z" stroke="#0A4D5C" stroke-width="1.66667" stroke-linecap="round" stroke-linejoin="round"/>
<path d="M552.771 465.597C554.688 467.514 554.688 470.681 552.771 472.681" stroke="#0A4D5C" stroke-width="1.66667" stroke-linecap="round" stroke-linejoin="round"/>
<path d="M555.188 463.181C558.438 466.431 558.438 471.681 555.188 474.931" stroke="#0A4D5C" stroke-width="1.66667" stroke-linecap="round" stroke-linejoin="round"/>
<path d="M588.664 464.682V466.111H582.149V464.682H584.535V458.113L582.225 459.555V458.045L584.638 456.479H586.456V464.682H588.664ZM596.286 464.532V466.111H589.546V464.778C589.715 464.409 589.929 464.049 590.188 463.698C590.448 463.343 590.758 462.987 591.118 462.632C591.483 462.272 591.897 461.903 592.362 461.524C592.7 461.251 592.987 461.002 593.224 460.779C593.461 460.551 593.645 460.348 593.777 460.171C593.914 459.993 594.017 459.818 594.085 459.644C594.153 459.467 594.188 459.293 594.188 459.125C594.188 458.706 594.08 458.391 593.866 458.181C593.657 457.972 593.342 457.867 592.923 457.867C592.513 457.867 592.198 457.979 591.979 458.202C591.765 458.421 591.626 458.751 591.562 459.193L589.628 459.084C589.737 458.191 590.07 457.509 590.626 457.04C591.187 456.57 591.948 456.336 592.909 456.336C593.948 456.336 594.746 456.573 595.302 457.047C595.858 457.521 596.136 458.186 596.136 459.043C596.136 459.526 596.035 459.959 595.835 460.342C595.634 460.724 595.379 461.078 595.069 461.401C594.814 461.679 594.525 461.944 594.201 462.194C593.882 462.445 593.572 462.689 593.271 462.926C592.952 463.181 592.661 463.438 592.396 463.698C592.137 463.958 591.943 464.236 591.815 464.532H596.286ZM610.225 463.363C610.225 464.238 609.896 464.915 609.24 465.393C608.584 465.872 607.673 466.111 606.506 466.111H601.687V456.479H606.096C607.271 456.479 608.16 456.684 608.762 457.095C609.368 457.5 609.671 458.102 609.671 458.899C609.671 459.446 609.518 459.909 609.213 460.287C608.912 460.661 608.452 460.914 607.832 461.046C608.611 461.137 609.204 461.383 609.609 461.784C610.02 462.18 610.225 462.707 610.225 463.363ZM607.641 459.173C607.641 458.74 607.502 458.432 607.224 458.25C606.95 458.068 606.542 457.976 606 457.976H603.703V460.362H606.014C606.583 460.362 606.996 460.264 607.251 460.068C607.511 459.868 607.641 459.569 607.641 459.173ZM608.201 463.206C608.201 462.304 607.554 461.852 606.26 461.852H603.703V464.614H606.335C606.982 464.614 607.454 464.498 607.75 464.265C608.051 464.028 608.201 463.675 608.201 463.206ZM613.431 462.782C613.431 463.502 613.563 464.047 613.827 464.416C614.096 464.78 614.477 464.963 614.969 464.963C615.306 464.963 615.582 464.89 615.796 464.744C616.015 464.594 616.167 464.373 616.254 464.081L618.065 464.238C617.541 465.578 616.477 466.248 614.873 466.248C613.761 466.248 612.907 465.92 612.31 465.264C611.713 464.603 611.414 463.641 611.414 462.379C611.414 461.157 611.717 460.219 612.323 459.562C612.929 458.906 613.788 458.578 614.9 458.578C615.962 458.578 616.773 458.931 617.334 459.638C617.895 460.339 618.175 461.369 618.175 462.727V462.782H613.431ZM616.315 461.579C616.279 460.982 616.135 460.535 615.885 460.239C615.634 459.938 615.297 459.788 614.873 459.788C614.422 459.788 614.073 459.945 613.827 460.26C613.586 460.574 613.458 461.014 613.444 461.579H616.315ZM621.347 466.248C620.631 466.248 620.073 466.054 619.672 465.667C619.271 465.275 619.07 464.726 619.07 464.019C619.07 463.254 619.319 462.673 619.815 462.276C620.317 461.88 621.041 461.672 621.989 461.654L623.582 461.627V461.251C623.582 460.768 623.498 460.41 623.329 460.178C623.16 459.941 622.885 459.822 622.502 459.822C622.146 459.822 621.884 459.904 621.716 460.068C621.552 460.228 621.449 460.494 621.408 460.868L619.405 460.772C619.656 459.309 620.715 458.578 622.584 458.578C623.518 458.578 624.238 458.808 624.744 459.268C625.25 459.729 625.503 460.383 625.503 461.23V463.924C625.503 464.338 625.549 464.625 625.64 464.785C625.735 464.94 625.893 465.017 626.111 465.017C626.257 465.017 626.398 465.004 626.535 464.976V466.015C626.298 466.075 626.095 466.118 625.927 466.145C625.758 466.177 625.551 466.193 625.305 466.193C624.822 466.193 624.464 466.075 624.231 465.838C624.004 465.601 623.867 465.252 623.821 464.792H623.78C623.511 465.275 623.174 465.639 622.769 465.886C622.363 466.127 621.889 466.248 621.347 466.248ZM623.582 462.686L622.598 462.7C622.146 462.723 621.83 462.771 621.647 462.844C621.461 462.926 621.317 463.049 621.217 463.213C621.121 463.377 621.073 463.596 621.073 463.869C621.073 464.22 621.153 464.482 621.312 464.655C621.477 464.824 621.693 464.908 621.962 464.908C622.263 464.908 622.538 464.826 622.789 464.662C623.035 464.498 623.229 464.272 623.37 463.985C623.511 463.694 623.582 463.386 623.582 463.062V462.686ZM630.514 466.248C629.393 466.248 628.527 465.915 627.916 465.25C627.305 464.58 627 463.648 627 462.454C627 461.233 627.308 460.282 627.923 459.603C628.538 458.92 629.411 458.578 630.541 458.578C631.411 458.578 632.132 458.797 632.701 459.234C633.271 459.672 633.629 460.276 633.774 461.046L631.84 461.141C631.785 460.763 631.648 460.462 631.43 460.239C631.211 460.011 630.901 459.897 630.5 459.897C630.003 459.897 629.632 460.105 629.386 460.519C629.14 460.93 629.017 461.549 629.017 462.379C629.017 463.231 629.142 463.871 629.393 464.3C629.648 464.723 630.026 464.935 630.527 464.935C630.892 464.935 631.197 464.821 631.443 464.594C631.689 464.361 631.842 464.017 631.901 463.561L633.829 463.65C633.761 464.17 633.576 464.625 633.275 465.017C632.979 465.405 632.594 465.708 632.12 465.927C631.646 466.141 631.111 466.248 630.514 466.248ZM642.251 462.406C642.251 463.605 641.918 464.546 641.253 465.229C640.588 465.908 639.667 466.248 638.491 466.248C637.338 466.248 636.434 465.906 635.777 465.222C635.121 464.539 634.793 463.6 634.793 462.406C634.793 461.217 635.121 460.282 635.777 459.603C636.434 458.92 637.352 458.578 638.532 458.578C639.74 458.578 640.66 458.908 641.294 459.569C641.932 460.225 642.251 461.171 642.251 462.406ZM640.241 462.406C640.241 461.527 640.098 460.889 639.811 460.492C639.523 460.096 639.106 459.897 638.56 459.897C637.976 459.897 637.539 460.107 637.247 460.526C636.955 460.941 636.81 461.568 636.81 462.406C636.81 463.231 636.951 463.86 637.233 464.293C637.521 464.721 637.933 464.935 638.471 464.935C639.063 464.935 639.505 464.726 639.797 464.306C640.093 463.883 640.241 463.249 640.241 462.406ZM645.703 462.146V466.111H643.782V460.369C643.782 459.972 643.775 459.649 643.762 459.398C643.753 459.143 643.741 458.915 643.728 458.715H645.56C645.569 458.769 645.58 458.899 645.594 459.104C645.607 459.305 645.619 459.512 645.628 459.726C645.642 459.936 645.648 460.089 645.648 460.184H645.676C645.936 459.619 646.261 459.209 646.653 458.954C647.045 458.699 647.512 458.571 648.055 458.571C648.839 458.571 649.44 458.813 649.859 459.296C650.279 459.779 650.488 460.485 650.488 461.415V466.111H648.574V461.962C648.574 461.31 648.465 460.822 648.246 460.499C648.027 460.175 647.697 460.014 647.255 460.014C646.79 460.014 646.414 460.214 646.127 460.615C645.844 461.012 645.703 461.522 645.703 462.146ZM658.575 463.951C658.575 464.666 658.281 465.229 657.693 465.639C657.11 466.045 656.301 466.248 655.267 466.248C654.25 466.248 653.471 466.088 652.929 465.769C652.391 465.446 652.033 464.944 651.855 464.265L653.544 464.013C653.64 464.363 653.804 464.612 654.036 464.758C654.273 464.903 654.683 464.976 655.267 464.976C655.804 464.976 656.196 464.908 656.442 464.771C656.688 464.635 656.812 464.42 656.812 464.129C656.812 463.892 656.711 463.705 656.511 463.568C656.315 463.427 655.98 463.308 655.506 463.213C655.146 463.14 654.822 463.069 654.535 463.001C654.253 462.932 654.009 462.866 653.804 462.803C653.603 462.734 653.439 462.67 653.312 462.611C652.933 462.424 652.644 462.185 652.443 461.893C652.247 461.602 652.149 461.242 652.149 460.813C652.149 460.107 652.421 459.558 652.963 459.166C653.51 458.769 654.282 458.571 655.28 458.571C656.16 458.571 656.866 458.742 657.399 459.084C657.937 459.426 658.272 459.92 658.404 460.567L656.702 460.745C656.647 460.444 656.513 460.221 656.299 460.075C656.085 459.925 655.745 459.849 655.28 459.849C654.825 459.849 654.483 459.909 654.255 460.027C654.027 460.141 653.913 460.335 653.913 460.608C653.913 460.822 654 460.993 654.173 461.121C654.351 461.244 654.647 461.347 655.062 461.429C655.64 461.547 656.153 461.67 656.6 461.798C657.051 461.921 657.413 462.069 657.687 462.242C657.955 462.415 658.17 462.639 658.329 462.912C658.493 463.181 658.575 463.527 658.575 463.951Z" fill="#0A4D5C"/>
<path d="M584.889 475.018C585.318 475.018 585.746 475.131 586.172 475.358C586.453 475.506 586.689 475.703 586.881 475.95C587.076 476.196 587.223 476.463 587.32 476.752C587.422 477.037 587.473 477.319 587.473 477.596C587.473 478.073 587.355 478.506 587.121 478.897C586.891 479.287 586.58 479.6 586.189 479.834C585.799 480.065 585.365 480.18 584.889 480.18C584.416 480.18 583.984 480.065 583.594 479.834C583.203 479.6 582.891 479.287 582.656 478.897C582.426 478.502 582.311 478.069 582.311 477.596C582.311 477.174 582.42 476.754 582.639 476.336C582.857 475.918 583.176 475.594 583.594 475.364C584.012 475.133 584.443 475.018 584.889 475.018ZM593.326 478.569L592.377 480.983H591.217L594.586 472.727H595.857L599.174 480.983H598.031L597.088 478.569H593.326ZM595.207 473.571C595.141 473.789 595.061 474.034 594.967 474.303C594.877 474.569 594.793 474.803 594.715 475.006L593.666 477.696H596.754L595.693 474.971C595.639 474.834 595.566 474.641 595.477 474.391C595.387 474.141 595.297 473.868 595.207 473.571ZM602.438 481.1C601.551 481.1 600.873 480.821 600.404 480.262C599.939 479.7 599.707 478.881 599.707 477.807C599.707 476.741 599.941 475.928 600.41 475.369C600.879 474.807 601.551 474.526 602.426 474.526C603.074 474.526 603.611 474.694 604.037 475.03C604.467 475.366 604.736 475.828 604.846 476.418L603.762 476.5C603.707 476.149 603.568 475.869 603.346 475.662C603.123 475.455 602.807 475.352 602.396 475.352C601.838 475.352 601.434 475.537 601.184 475.909C600.934 476.28 600.809 476.905 600.809 477.784C600.809 478.627 600.941 479.252 601.207 479.659C601.473 480.065 601.873 480.268 602.408 480.268C602.783 480.268 603.096 480.166 603.346 479.963C603.6 479.76 603.756 479.448 603.814 479.026L604.881 479.096C604.826 479.502 604.689 479.856 604.471 480.157C604.256 480.457 603.975 480.69 603.627 480.854C603.283 481.018 602.887 481.1 602.438 481.1ZM608.443 480.936C608.1 481.03 607.744 481.076 607.377 481.076C606.955 481.076 606.639 480.957 606.428 480.719C606.217 480.477 606.111 480.118 606.111 479.641V475.41H605.379V474.643H606.152L606.463 473.225H607.166V474.643H608.338V475.41H607.166V479.412C607.166 479.717 607.215 479.932 607.312 480.057C607.414 480.178 607.588 480.239 607.834 480.239C607.967 480.239 608.17 480.211 608.443 480.157V480.936ZM610.395 472.287V473.295H609.34V472.287H610.395ZM610.395 474.643V480.983H609.34V474.643H610.395ZM617.168 474.643L614.801 480.983H613.553L611.25 474.643H612.375L613.77 478.768C613.797 478.846 613.844 479.002 613.91 479.237C613.977 479.467 614.064 479.774 614.174 480.157C614.225 480.004 614.273 479.846 614.32 479.682C614.371 479.514 614.42 479.352 614.467 479.196C614.518 479.039 614.564 478.901 614.607 478.78L616.049 474.643H617.168ZM618.826 478.035C618.826 478.762 618.977 479.323 619.277 479.717C619.578 480.112 620.018 480.309 620.596 480.309C621.053 480.309 621.418 480.217 621.691 480.034C621.969 479.85 622.156 479.618 622.254 479.336L623.18 479.6C622.801 480.6 621.939 481.1 620.596 481.1C619.658 481.1 618.943 480.821 618.451 480.262C617.963 479.703 617.719 478.873 617.719 477.772C617.719 476.725 617.963 475.922 618.451 475.364C618.943 474.805 619.645 474.526 620.555 474.526C621.488 474.526 622.188 474.807 622.652 475.369C623.117 475.932 623.35 476.774 623.35 477.895V478.035H618.826ZM622.26 477.227C622.201 476.559 622.031 476.073 621.75 475.768C621.469 475.459 621.064 475.305 620.537 475.305C620.025 475.305 619.619 475.477 619.318 475.821C619.021 476.16 618.861 476.629 618.838 477.227H622.26Z" fill="#00A63E"/>
</g>
<defs>
<filter id="filter0_d_119_42" x="5.99316" y="10.9931" width="684.003" height="542.215" filterUnits="userSpaceOnUse" color-interpolation-filters="sRGB">
<feFlood flood-opacity="0" result="BackgroundImageFix"/>
<feColorMatrix in="SourceAlpha" type="matrix" values="0 0 0 0 0 0 0 0 0 0 0 0 0 0 0 0 0 0 127 0" result="hardAlpha"/>
<feMorphology radius="12" operator="erode" in="SourceAlpha" result="effect1_dropShadow_119_42"/>
<feOffset dy="25"/>
<feGaussianBlur stdDeviation="25"/>
<feComposite in2="hardAlpha" operator="out"/>
<feColorMatrix type="matrix" values="0 0 0 0 0 0 0 0 0 0 0 0 0 0 0 0 0 0 0.25 0"/>
<feBlend mode="normal" in2="BackgroundImageFix" result="effect1_dropShadow_119_42"/>
<feBlend mode="normal" in="SourceGraphic" in2="effect1_dropShadow_119_42" result="shape"/>
</filter>
<filter id="filter1_dd_119_42" x="135.99" y="165.139" width="423.993" height="223.906" filterUnits="userSpaceOnUse" color-interpolation-filters="sRGB">
<feFlood flood-opacity="0" result="BackgroundImageFix"/>
<feColorMatrix in="SourceAlpha" type="matrix" values="0 0 0 0 0 0 0 0 0 0 0 0 0 0 0 0 0 0 127 0" result="hardAlpha"/>
<feMorphology radius="6" operator="erode" in="SourceAlpha" result="effect1_dropShadow_119_42"/>
<feOffset dy="8"/>
<feGaussianBlur stdDeviation="5"/>
<feComposite in2="hardAlpha" operator="out"/>
<feColorMatrix type="matrix" values="0 0 0 0 0 0 0 0 0 0 0 0 0 0 0 0 0 0 0.1 0"/>
<feBlend mode="normal" in2="BackgroundImageFix" result="effect1_dropShadow_119_42"/>
<feColorMatrix in="SourceAlpha" type="matrix" values="0 0 0 0 0 0 0 0 0 0 0 0 0 0 0 0 0 0 127 0" result="hardAlpha"/>
<feMorphology radius="5" operator="erode" in="SourceAlpha" result="effect2_dropShadow_119_42"/>
<feOffset dy="20"/>
<feGaussianBlur stdDeviation="12.5"/>
<feComposite in2="hardAlpha" operator="out"/>
<feColorMatrix type="matrix" values="0 0 0 0 0 0 0 0 0 0 0 0 0 0 0 0 0 0 0.1 0"/>
<feBlend mode="normal" in2="effect1_dropShadow_119_42" result="effect2_dropShadow_119_42"/>
<feBlend mode="normal" in="SourceGraphic" in2="effect2_dropShadow_119_42" result="shape"/>
</filter>
<filter id="filter2_dd_119_42" x="167.982" y="187.132" width="79.9897" height="79.9896" filterUnits="userSpaceOnUse" color-interpolation-filters="sRGB">
<feFlood flood-opacity="0" result="BackgroundImageFix"/>
<feColorMatrix in="SourceAlpha" type="matrix" values="0 0 0 0 0 0 0 0 0 0 0 0 0 0 0 0 0 0 127 0" result="hardAlpha"/>
<feMorphology radius="4" operator="erode" in="SourceAlpha" result="effect1_dropShadow_119_42"/>
<feOffset dy="4"/>
<feGaussianBlur stdDeviation="3"/>
<feComposite in2="hardAlpha" operator="out"/>
<feColorMatrix type="matrix" values="0 0 0 0 0 0 0 0 0 0 0 0 0 0 0 0 0 0 0.1 0"/>
<feBlend mode="normal" in2="BackgroundImageFix" result="effect1_dropShadow_119_42"/>
<feColorMatrix in="SourceAlpha" type="matrix" values="0 0 0 0 0 0 0 0 0 0 0 0 0 0 0 0 0 0 127 0" result="hardAlpha"/>
<feMorphology radius="3" operator="erode" in="SourceAlpha" result="effect2_dropShadow_119_42"/>
<feOffset dy="10"/>
<feGaussianBlur stdDeviation="7.5"/>
<feComposite in2="hardAlpha" operator="out"/>
<feColorMatrix type="matrix" values="0 0 0 0 0 0 0 0 0 0 0 0 0 0 0 0 0 0 0.1 0"/>
<feBlend mode="normal" in2="effect1_dropShadow_119_42" result="effect2_dropShadow_119_42"/>
<feBlend mode="normal" in="SourceGraphic" in2="effect2_dropShadow_119_42" result="shape"/>
</filter>
<filter id="filter3_dd_119_42" x="0" y="0" width="232.934" height="122.188" filterUnits="userSpaceOnUse" color-interpolation-filters="sRGB">
<feFlood flood-opacity="0" result="BackgroundImageFix"/>
<feColorMatrix in="SourceAlpha" type="matrix" values="0 0 0 0 0 0 0 0 0 0 0 0 0 0 0 0 0 0 127 0" result="hardAlpha"/>
<feMorphology radius="6" operator="erode" in="SourceAlpha" result="effect1_dropShadow_119_42"/>
<feOffset dy="8"/>
<feGaussianBlur stdDeviation="5"/>
<feComposite in2="hardAlpha" operator="out"/>
<feColorMatrix type="matrix" values="0 0 0 0 0 0 0 0 0 0 0 0 0 0 0 0 0 0 0.1 0"/>
<feBlend mode="normal" in2="BackgroundImageFix" result="effect1_dropShadow_119_42"/>
<feColorMatrix in="SourceAlpha" type="matrix" values="0 0 0 0 0 0 0 0 0 0 0 0 0 0 0 0 0 0 127 0" result="hardAlpha"/>
<feMorphology radius="5" operator="erode" in="SourceAlpha" result="effect2_dropShadow_119_42"/>
<feOffset dy="20"/>
<feGaussianBlur stdDeviation="12.5"/>
<feComposite in2="hardAlpha" operator="out"/>
<feColorMatrix type="matrix" values="0 0 0 0 0 0 0 0 0 0 0 0 0 0 0 0 0 0 0.1 0"/>
<feBlend mode="normal" in2="effect1_dropShadow_119_42" result="effect2_dropShadow_119_42"/>
<feBlend mode="normal" in="SourceGraphic" in2="effect2_dropShadow_119_42" result="shape"/>
</filter>
<filter id="filter4_dd_119_42" x="492.17" y="431.997" width="195.816" height="114.201" filterUnits="userSpaceOnUse" color-interpolation-filters="sRGB">
<feFlood flood-opacity="0" result="BackgroundImageFix"/>
<feColorMatrix in="SourceAlpha" type="matrix" values="0 0 0 0 0 0 0 0 0 0 0 0 0 0 0 0 0 0 127 0" result="hardAlpha"/>
<feMorphology radius="6" operator="erode" in="SourceAlpha" result="effect1_dropShadow_119_42"/>
<feOffset dy="8"/>
<feGaussianBlur stdDeviation="5"/>
<feComposite in2="hardAlpha" operator="out"/>
<feColorMatrix type="matrix" values="0 0 0 0 0 0 0 0 0 0 0 0 0 0 0 0 0 0 0.1 0"/>
<feBlend mode="normal" in2="BackgroundImageFix" result="effect1_dropShadow_119_42"/>
<feColorMatrix in="SourceAlpha" type="matrix" values="0 0 0 0 0 0 0 0 0 0 0 0 0 0 0 0 0 0 127 0" result="hardAlpha"/>
<feMorphology radius="5" operator="erode" in="SourceAlpha" result="effect2_dropShadow_119_42"/>
<feOffset dy="20"/>
<feGaussianBlur stdDeviation="12.5"/>
<feComposite in2="hardAlpha" operator="out"/>
<feColorMatrix type="matrix" values="0 0 0 0 0 0 0 0 0 0 0 0 0 0 0 0 0 0 0.1 0"/>
<feBlend mode="normal" in2="effect1_dropShadow_119_42" result="effect2_dropShadow_119_42"/>
<feBlend mode="normal" in="SourceGraphic" in2="effect2_dropShadow_119_42" result="shape"/>
</filter>
<linearGradient id="paint0_linear_119_42" x1="347.995" y1="57.1007" x2="347.995" y2="457.101" gradientUnits="userSpaceOnUse">
<stop stop-color="#E8F4F8"/>
<stop offset="1" stop-color="white"/>
</linearGradient>
<clipPath id="clip0_119_42">
<path d="M77.1006 73.1007C77.1006 64.2641 84.264 57.1007 93.1006 57.1007H602.889C611.725 57.1007 618.889 64.2641 618.889 73.1007V441.101C618.889 449.937 611.725 457.101 602.889 457.101H93.1006C84.264 457.101 77.1006 449.937 77.1006 441.101V73.1007Z" fill="white"/>
</clipPath>
<clipPath id="clip1_119_42">
<rect width="15.9896" height="15.9896" fill="white" transform="translate(251.962 255.104)"/>
</clipPath>
<clipPath id="clip2_119_42">
<rect width="15.9896" height="15.9896" fill="white" transform="translate(352.344 255.104)"/>
</clipPath>
<clipPath id="clip3_119_42">
<path d="M179.982 295.078C179.982 291.765 182.668 289.08 185.981 289.08H509.991C513.304 289.08 515.989 291.765 515.989 295.078V295.078C515.989 298.391 513.304 301.076 509.991 301.076H185.981C182.668 301.076 179.982 298.391 179.982 295.078V295.078Z" fill="white"/>
</clipPath>
</defs>
</svg>
