<svg width="696" height="696" viewBox="0 0 696 696" fill="none" xmlns="http://www.w3.org/2000/svg">
<g filter="url(#filter0_d_119_293)">
<mask id="path-1-inside-1_119_293" fill="white">
<path d="M43.9932 47.9931C43.9932 34.7383 54.7383 23.9932 67.9932 23.9932H627.997C641.252 23.9932 651.997 34.7383 651.997 47.9932V607.997C651.997 621.252 641.251 631.997 627.997 631.997H67.9931C54.7383 631.997 43.9932 621.251 43.9932 607.997V47.9931Z"/>
</mask>
<path d="M43.9932 47.9931C43.9932 34.7383 54.7383 23.9932 67.9932 23.9932H627.997C641.252 23.9932 651.997 34.7383 651.997 47.9932V607.997C651.997 621.252 641.251 631.997 627.997 631.997H67.9931C54.7383 631.997 43.9932 621.251 43.9932 607.997V47.9931Z" fill="url(#paint0_linear_119_293)" shape-rendering="crispEdges"/>
<path d="M67.9932 23.9932V25.1043H627.997V23.9932V22.8821H67.9932V23.9932ZM651.997 47.9932H650.886V607.997H651.997H653.108V47.9932H651.997ZM627.997 631.997V630.886H67.9931V631.997V633.108H627.997V631.997ZM43.9932 607.997H45.1043V47.9931H43.9932H42.8821V607.997H43.9932ZM67.9931 631.997V630.886C55.352 630.886 45.1043 620.638 45.1043 607.997H43.9932H42.8821C42.8821 621.865 54.1247 633.108 67.9931 633.108V631.997ZM651.997 607.997H650.886C650.886 620.638 640.638 630.886 627.997 630.886V631.997V633.108C641.865 633.108 653.108 621.865 653.108 607.997H651.997ZM627.997 23.9932V25.1043C640.638 25.1043 650.886 35.352 650.886 47.9932H651.997H653.108C653.108 34.1247 641.865 22.8821 627.997 22.8821V23.9932ZM67.9932 23.9932V22.8821C54.1247 22.8821 42.8821 34.1247 42.8821 47.9931H43.9932H45.1043C45.1043 35.352 55.352 25.1043 67.9932 25.1043V23.9932Z" fill="#E2E8F0" mask="url(#path-1-inside-1_119_293)"/>
<g filter="url(#filter1_dd_119_293)">
<path d="M93.0903 89.0904C93.0903 80.2538 100.254 73.0903 109.09 73.0903H586.899C595.736 73.0903 602.899 80.2538 602.899 89.0903V566.899C602.899 575.736 595.736 582.899 586.899 582.899H109.09C100.254 582.899 93.0903 575.736 93.0903 566.899V89.0904Z" fill="white"/>
<path d="M125.087 129.087C125.087 115.832 135.832 105.087 149.087 105.087H546.903C560.158 105.087 570.903 115.832 570.903 129.087V526.903C570.903 540.158 560.158 550.903 546.903 550.903H149.087C135.832 550.903 125.087 540.158 125.087 526.903V129.087Z" fill="url(#paint1_linear_119_293)"/>
<path d="M149.08 145.08C149.08 136.243 156.244 129.08 165.08 129.08H530.91C539.747 129.08 546.91 136.243 546.91 145.08V414.937C546.91 423.774 539.747 430.938 530.91 430.938H165.08C156.244 430.938 149.08 423.774 149.08 414.937V145.08Z" fill="white" fill-opacity="0.1"/>
<path d="M367.993 240.013H327.997C323.579 240.013 319.998 243.594 319.998 248.012V312.005C319.998 316.423 323.579 320.004 327.997 320.004H367.993C372.41 320.004 375.992 316.423 375.992 312.005V248.012C375.992 243.594 372.41 240.013 367.993 240.013Z" stroke="#FDB913" stroke-width="7.99913" stroke-linecap="round" stroke-linejoin="round"/>
<path d="M347.995 304.006H348.035" stroke="#FDB913" stroke-width="7.99913" stroke-linecap="round" stroke-linejoin="round"/>
<path d="M149.08 452.926C149.08 449.613 151.766 446.927 155.078 446.927H540.912C544.224 446.927 546.91 449.613 546.91 452.926V452.926C546.91 456.238 544.224 458.924 540.912 458.924H155.078C151.766 458.924 149.08 456.238 149.08 452.926V452.926Z" fill="white" fill-opacity="0.2"/>
<path d="M149.08 476.918C149.08 473.606 151.766 470.92 155.078 470.92H441.45C444.763 470.92 447.448 473.606 447.448 476.918V476.918C447.448 480.231 444.763 482.917 441.45 482.917H155.078C151.766 482.917 149.08 480.231 149.08 476.918V476.918Z" fill="white" fill-opacity="0.2"/>
<path d="M149.08 510.912C149.08 502.076 156.243 494.913 165.078 494.913H530.912C539.747 494.913 546.91 502.076 546.91 510.912V510.912C546.91 519.747 539.747 526.91 530.912 526.91H165.078C156.243 526.91 149.08 519.747 149.08 510.912V510.912Z" fill="#FDB913"/>
</g>
</g>
<g filter="url(#filter2_dd_119_293)">
<mask id="path-11-inside-2_119_293" fill="white">
<path d="M523.507 16C523.507 7.16343 530.671 0 539.507 0H659.99C668.826 0 675.99 7.16344 675.99 16V90.1806C675.99 99.0171 668.826 106.181 659.99 106.181H539.507C530.671 106.181 523.507 99.0171 523.507 90.1806V16Z"/>
</mask>
<path d="M523.507 16C523.507 7.16343 530.671 0 539.507 0H659.99C668.826 0 675.99 7.16344 675.99 16V90.1806C675.99 99.0171 668.826 106.181 659.99 106.181H539.507C530.671 106.181 523.507 99.0171 523.507 90.1806V16Z" fill="white" shape-rendering="crispEdges"/>
<path d="M539.507 0V1.11111H659.99V0V-1.11111H539.507V0ZM675.99 16H674.879V90.1806H675.99H677.101V16H675.99ZM659.99 106.181V105.069H539.507V106.181V107.292H659.99V106.181ZM523.507 90.1806H524.618V16H523.507H522.396V90.1806H523.507ZM539.507 106.181V105.069C531.284 105.069 524.618 98.4035 524.618 90.1806H523.507H522.396C522.396 99.6308 530.057 107.292 539.507 107.292V106.181ZM675.99 90.1806H674.879C674.879 98.4035 668.213 105.069 659.99 105.069V106.181V107.292C669.44 107.292 677.101 99.6308 677.101 90.1806H675.99ZM659.99 0V1.11111C668.213 1.11111 674.879 7.7771 674.879 16H675.99H677.101C677.101 6.54979 669.44 -1.11111 659.99 -1.11111V0ZM539.507 0V-1.11111C530.057 -1.11111 522.396 6.54978 522.396 16H523.507H524.618C524.618 7.77708 531.284 1.11111 539.507 1.11111V0Z" fill="#E2E8F0" mask="url(#path-11-inside-2_119_293)"/>
<path d="M564.183 39.2327C564.183 42.8948 563.514 45.634 562.176 47.4504C560.838 49.2668 558.938 50.175 556.478 50.175C554.661 50.175 553.235 49.7893 552.2 49.0178C551.175 48.2366 550.447 47.0061 550.018 45.3264L553.885 44.7844C554.266 46.22 555.145 46.9377 556.521 46.9377C557.674 46.9377 558.558 46.386 559.173 45.2825C559.798 44.179 560.12 42.5432 560.14 40.3752C559.769 41.1077 559.158 41.6838 558.309 42.1038C557.469 42.5139 556.561 42.719 555.584 42.719C554.373 42.719 553.323 42.4407 552.435 41.884C551.546 41.3176 550.857 40.5217 550.369 39.4963C549.891 38.4709 549.651 37.2551 549.651 35.8489C549.651 33.6809 550.276 31.9866 551.526 30.7659C552.786 29.5452 554.563 28.9348 556.858 28.9348C559.329 28.9348 561.165 29.7942 562.366 31.5129C563.577 33.2219 564.183 35.7952 564.183 39.2327ZM559.832 36.3469C559.832 35.0676 559.549 34.052 558.982 33.3C558.426 32.5383 557.684 32.1575 556.756 32.1575C555.848 32.1575 555.13 32.4895 554.603 33.1536C554.085 33.8079 553.826 34.7161 553.826 35.8782C553.826 37.0208 554.085 37.9387 554.603 38.6321C555.12 39.3157 555.843 39.6575 556.771 39.6575C557.356 39.6575 557.879 39.5208 558.338 39.2473C558.797 38.9739 559.158 38.5881 559.422 38.0901C559.695 37.592 559.832 37.011 559.832 36.3469ZM581.072 44.0667C581.072 46.0002 580.433 47.5042 579.153 48.5784C577.874 49.6428 576.048 50.175 573.675 50.175C571.321 50.175 569.495 49.6428 568.196 48.5784C566.907 47.5139 566.263 46.0198 566.263 44.0959C566.263 42.7776 566.644 41.6692 567.405 40.7708C568.167 39.8625 569.188 39.301 570.467 39.0862V39.0276C569.354 38.7834 568.455 38.2317 567.771 37.3723C567.088 36.5129 566.746 35.5217 566.746 34.3987C566.746 32.7092 567.342 31.3762 568.533 30.3997C569.734 29.4231 571.429 28.9348 573.616 28.9348C575.853 28.9348 577.566 29.4133 578.758 30.3704C579.959 31.3176 580.56 32.6702 580.56 34.428C580.56 35.551 580.218 36.5374 579.534 37.387C578.86 38.2366 577.952 38.7737 576.81 38.9983V39.0569C578.138 39.2717 579.178 39.8186 579.93 40.6975C580.691 41.5667 581.072 42.6897 581.072 44.0667ZM576.326 34.6477C576.326 32.7629 575.423 31.8206 573.616 31.8206C571.839 31.8206 570.95 32.7629 570.95 34.6477C570.95 35.634 571.175 36.3762 571.624 36.8743C572.073 37.3625 572.747 37.6067 573.646 37.6067C574.544 37.6067 575.213 37.3772 575.652 36.9182C576.102 36.4592 576.326 35.7024 576.326 34.6477ZM576.81 43.7297C576.81 42.6555 576.541 41.8499 576.004 41.3127C575.467 40.7659 574.661 40.4924 573.587 40.4924C572.591 40.4924 571.824 40.7756 571.287 41.342C570.76 41.9084 570.496 42.7239 570.496 43.7883C570.496 44.9993 570.76 45.8831 571.287 46.4397C571.814 46.9963 572.62 47.2747 573.704 47.2747C574.769 47.2747 575.55 46.9963 576.048 46.4397C576.556 45.8831 576.81 44.9797 576.81 43.7297ZM587.986 29.0081C591.424 29.0081 593.143 31.1956 593.143 35.5706C593.143 37.6995 592.698 39.3303 591.81 40.4631C590.931 41.5862 589.632 42.1477 587.913 42.1477C586.214 42.1477 584.93 41.5911 584.061 40.4778C583.191 39.3547 582.757 37.719 582.757 35.5706C582.757 33.3538 583.177 31.7083 584.017 30.634C584.856 29.55 586.18 29.0081 587.986 29.0081ZM603.616 29.2424L590.096 49.8821H587.078L600.555 29.2424H603.616ZM589.964 35.5706C589.964 34.0276 589.812 32.929 589.51 32.2747C589.217 31.6106 588.709 31.2786 587.986 31.2786C587.205 31.2786 586.663 31.6106 586.36 32.2747C586.058 32.929 585.906 34.0276 585.906 35.5706C585.906 37.1038 586.062 38.2024 586.375 38.8665C586.697 39.5305 587.225 39.8625 587.957 39.8625C588.68 39.8625 589.192 39.5305 589.495 38.8665C589.808 38.2024 589.964 37.1038 589.964 35.5706ZM607.894 43.554C607.894 45.6829 607.454 47.3088 606.575 48.4319C605.696 49.5549 604.407 50.1165 602.708 50.1165C600.989 50.1165 599.695 49.5598 598.826 48.4465C597.957 47.3333 597.522 45.7024 597.522 43.554C597.522 41.3665 597.942 39.7258 598.782 38.6321C599.622 37.5286 600.95 36.9768 602.767 36.9768C604.524 36.9768 605.818 37.5334 606.648 38.6467C607.479 39.7502 607.894 41.386 607.894 43.554ZM604.744 43.554C604.744 41.9915 604.593 40.8831 604.29 40.2288C603.997 39.5647 603.489 39.2327 602.767 39.2327C601.985 39.2327 601.443 39.5745 601.141 40.2581C600.848 40.9319 600.701 42.0305 600.701 43.554C600.701 45.1262 600.857 46.2297 601.17 46.8645C601.492 47.4993 602.015 47.8167 602.737 47.8167C603.45 47.8167 603.963 47.4846 604.275 46.8206C604.588 46.1565 604.744 45.0676 604.744 43.554Z" fill="#0A4D5C"/>
<path d="M557.307 73.4346C557.307 74.3232 556.958 75.0114 556.261 75.499C555.568 75.9867 554.59 76.2305 553.328 76.2305C550.981 76.2305 549.621 75.4147 549.247 73.7832L550.512 73.5303C550.658 74.109 550.967 74.5352 551.441 74.8086C551.915 75.0775 552.56 75.2119 553.376 75.2119C554.219 75.2119 554.868 75.0684 555.324 74.7812C555.785 74.4896 556.015 74.0635 556.015 73.5029C556.015 73.1885 555.942 72.9333 555.796 72.7373C555.655 72.5413 555.454 72.3796 555.194 72.252C554.935 72.1243 554.625 72.0173 554.265 71.9307C553.905 71.8441 553.506 71.7507 553.068 71.6504C552.562 71.5365 552.139 71.4248 551.797 71.3154C551.46 71.2061 551.182 71.0921 550.963 70.9736C550.744 70.8506 550.557 70.7207 550.402 70.584C550.174 70.3743 549.999 70.1305 549.876 69.8525C549.757 69.5745 549.698 69.2555 549.698 68.8955C549.698 68.0706 550.013 67.4349 550.642 66.9883C551.275 66.5417 552.18 66.3184 553.355 66.3184C554.449 66.3184 555.285 66.487 555.864 66.8242C556.443 67.1569 556.849 67.7266 557.081 68.5332L555.796 68.7588C555.655 68.2484 555.386 67.8792 554.989 67.6514C554.593 67.4189 554.044 67.3027 553.342 67.3027C552.572 67.3027 551.984 67.4303 551.578 67.6855C551.173 67.9408 550.97 68.3213 550.97 68.8271C550.97 69.1234 551.047 69.3695 551.202 69.5654C551.362 69.7568 551.59 69.9186 551.886 70.0508C552.164 70.1829 552.754 70.3493 553.656 70.5498C554.025 70.6364 554.39 70.7275 554.75 70.8232C555.11 70.9144 555.45 71.0306 555.769 71.1719C555.955 71.2493 556.133 71.3451 556.302 71.459C556.475 71.5684 556.625 71.696 556.753 71.8418C556.926 72.0332 557.061 72.2588 557.156 72.5186C557.257 72.7783 557.307 73.0837 557.307 73.4346ZM560.779 76.2305C560.036 76.2305 559.478 76.0345 559.104 75.6426C558.731 75.2507 558.544 74.7129 558.544 74.0293C558.544 73.2637 558.795 72.6758 559.296 72.2656C559.802 71.8555 560.615 71.6367 561.736 71.6094L563.397 71.582V71.1787C563.397 70.5771 563.27 70.1465 563.015 69.8867C562.759 69.627 562.358 69.4971 561.812 69.4971C561.26 69.4971 560.859 69.5905 560.608 69.7773C560.358 69.9642 560.207 70.2627 560.157 70.6729L558.872 70.5566C559.082 69.2259 560.071 68.5605 561.839 68.5605C562.769 68.5605 563.468 68.7747 563.938 69.2031C564.407 69.627 564.642 70.2422 564.642 71.0488V74.2344C564.642 74.599 564.689 74.8747 564.785 75.0615C564.881 75.2438 565.063 75.335 565.332 75.335C565.46 75.335 565.594 75.319 565.735 75.2871V76.0527C565.58 76.0892 565.423 76.1165 565.264 76.1348C565.104 76.153 564.945 76.1621 564.785 76.1621C564.329 76.1621 563.997 76.0436 563.787 75.8066C563.582 75.5651 563.466 75.1891 563.438 74.6787H563.397C563.083 75.2438 562.716 75.6449 562.297 75.8818C561.882 76.1143 561.376 76.2305 560.779 76.2305ZM563.397 72.4434L562.051 72.4707C561.477 72.4753 561.039 72.5345 560.738 72.6484C560.438 72.7578 560.207 72.9264 560.048 73.1543C559.888 73.3822 559.809 73.6807 559.809 74.0498C559.809 74.4508 559.916 74.7607 560.13 74.9795C560.349 75.1982 560.659 75.3076 561.06 75.3076C561.515 75.3076 561.916 75.2051 562.263 75C562.614 74.7949 562.889 74.5146 563.09 74.1592C563.295 73.7992 563.397 73.43 563.397 73.0518V72.4434ZM569.529 76.0391C569.128 76.1484 568.714 76.2031 568.285 76.2031C567.793 76.2031 567.424 76.0641 567.178 75.7861C566.932 75.5036 566.809 75.0843 566.809 74.5283V69.5928H565.954V68.6973H566.856L567.219 67.043H568.039V68.6973H569.406V69.5928H568.039V74.2617C568.039 74.6172 568.096 74.8678 568.21 75.0137C568.328 75.1549 568.531 75.2256 568.818 75.2256C568.973 75.2256 569.21 75.1937 569.529 75.1299V76.0391ZM571.806 65.9492V67.125H570.575V65.9492H571.806ZM571.806 68.6973V76.0938H570.575V68.6973H571.806ZM579.25 74.0498C579.25 74.7471 578.986 75.2848 578.457 75.6631C577.933 76.0413 577.197 76.2305 576.249 76.2305C575.328 76.2305 574.618 76.0801 574.116 75.7793C573.619 75.474 573.296 75 573.146 74.3574L574.232 74.1455C574.337 74.542 574.554 74.8337 574.882 75.0205C575.21 75.2028 575.666 75.2939 576.249 75.2939C576.873 75.2939 577.329 75.1982 577.616 75.0068C577.908 74.8154 578.054 74.5283 578.054 74.1455C578.054 73.8538 577.953 73.6169 577.753 73.4346C577.552 73.2523 577.229 73.1019 576.782 72.9834C576.254 72.8421 575.832 72.7259 575.518 72.6348C575.208 72.5436 574.968 72.4661 574.8 72.4023C574.631 72.334 574.497 72.2702 574.396 72.2109C574.096 72.0378 573.861 71.8258 573.692 71.5752C573.524 71.3245 573.439 71.0169 573.439 70.6523C573.439 69.9779 573.679 69.4652 574.157 69.1143C574.64 68.7588 575.342 68.5811 576.263 68.5811C577.078 68.5811 577.726 68.7246 578.204 69.0117C578.687 69.2988 578.993 69.7591 579.12 70.3926L578.013 70.5293C577.944 70.2012 577.76 69.9505 577.459 69.7773C577.163 69.5996 576.764 69.5107 576.263 69.5107C575.707 69.5107 575.297 69.5951 575.032 69.7637C574.768 69.9323 574.636 70.1875 574.636 70.5293C574.636 70.7799 574.711 70.9873 574.861 71.1514C575.012 71.3109 575.299 71.443 575.723 71.5479C576.292 71.6846 576.835 71.835 577.35 71.999C577.865 72.1585 578.234 72.318 578.457 72.4775C578.717 72.6644 578.913 72.8854 579.045 73.1406C579.182 73.3913 579.25 73.6943 579.25 74.0498ZM582.224 69.5928V76.0938H580.993V69.5928H579.954V68.6973H580.993V67.8633C580.993 67.1888 581.141 66.7035 581.438 66.4072C581.734 66.111 582.187 65.9629 582.798 65.9629C583.14 65.9629 583.429 65.9902 583.666 66.0449V66.9814C583.447 66.945 583.265 66.9268 583.119 66.9268C582.805 66.9268 582.577 67.0065 582.436 67.166C582.294 67.3255 582.224 67.6149 582.224 68.0342V68.6973H583.666V69.5928H582.224ZM586.482 76.2305C585.74 76.2305 585.181 76.0345 584.808 75.6426C584.434 75.2507 584.247 74.7129 584.247 74.0293C584.247 73.2637 584.498 72.6758 584.999 72.2656C585.505 71.8555 586.318 71.6367 587.439 71.6094L589.101 71.582V71.1787C589.101 70.5771 588.973 70.1465 588.718 69.8867C588.463 69.627 588.062 69.4971 587.515 69.4971C586.963 69.4971 586.562 69.5905 586.312 69.7773C586.061 69.9642 585.91 70.2627 585.86 70.6729L584.575 70.5566C584.785 69.2259 585.774 68.5605 587.542 68.5605C588.472 68.5605 589.171 68.7747 589.641 69.2031C590.11 69.627 590.345 70.2422 590.345 71.0488V74.2344C590.345 74.599 590.393 74.8747 590.488 75.0615C590.584 75.2438 590.766 75.335 591.035 75.335C591.163 75.335 591.297 75.319 591.438 75.2871V76.0527C591.284 76.0892 591.126 76.1165 590.967 76.1348C590.807 76.153 590.648 76.1621 590.488 76.1621C590.033 76.1621 589.7 76.0436 589.49 75.8066C589.285 75.5651 589.169 75.1891 589.142 74.6787H589.101C588.786 75.2438 588.419 75.6449 588 75.8818C587.585 76.1143 587.079 76.2305 586.482 76.2305ZM589.101 72.4434L587.754 72.4707C587.18 72.4753 586.742 72.5345 586.441 72.6484C586.141 72.7578 585.91 72.9264 585.751 73.1543C585.591 73.3822 585.512 73.6807 585.512 74.0498C585.512 74.4508 585.619 74.7607 585.833 74.9795C586.052 75.1982 586.362 75.3076 586.763 75.3076C587.218 75.3076 587.619 75.2051 587.966 75C588.317 74.7949 588.592 74.5146 588.793 74.1592C588.998 73.7992 589.101 73.43 589.101 73.0518V72.4434ZM595.226 76.2305C594.191 76.2305 593.4 75.9046 592.854 75.2529C592.311 74.5967 592.04 73.6419 592.04 72.3887C592.04 71.1445 592.313 70.1966 592.86 69.5449C593.407 68.8887 594.191 68.5605 595.212 68.5605C595.968 68.5605 596.595 68.7565 597.092 69.1484C597.593 69.5404 597.908 70.0804 598.035 70.7686L596.771 70.8643C596.707 70.4541 596.545 70.1283 596.285 69.8867C596.025 69.6452 595.656 69.5244 595.178 69.5244C594.526 69.5244 594.054 69.7409 593.763 70.1738C593.471 70.6068 593.325 71.3359 593.325 72.3613C593.325 73.3457 593.48 74.0749 593.79 74.5488C594.1 75.0228 594.567 75.2598 595.191 75.2598C595.629 75.2598 595.993 75.1413 596.285 74.9043C596.581 74.6673 596.764 74.3027 596.832 73.8105L598.076 73.8926C598.012 74.3665 597.853 74.779 597.598 75.1299C597.347 75.4808 597.019 75.752 596.613 75.9434C596.212 76.1348 595.75 76.2305 595.226 76.2305ZM602.232 76.0391C601.831 76.1484 601.417 76.2031 600.988 76.2031C600.496 76.2031 600.127 76.0641 599.881 75.7861C599.635 75.5036 599.512 75.0843 599.512 74.5283V69.5928H598.657V68.6973H599.56L599.922 67.043H600.742V68.6973H602.109V69.5928H600.742V74.2617C600.742 74.6172 600.799 74.8678 600.913 75.0137C601.032 75.1549 601.234 75.2256 601.521 75.2256C601.676 75.2256 601.913 75.1937 602.232 75.1299V76.0391ZM604.509 65.9492V67.125H603.278V65.9492H604.509ZM604.509 68.6973V76.0938H603.278V68.6973H604.509ZM612.657 72.3887C612.657 73.6829 612.372 74.6468 611.803 75.2803C611.233 75.9137 610.406 76.2305 609.321 76.2305C608.241 76.2305 607.425 75.9023 606.874 75.2461C606.323 74.5853 606.047 73.6328 606.047 72.3887C606.047 71.1126 606.323 70.1556 606.874 69.5176C607.43 68.8796 608.259 68.5605 609.362 68.5605C610.493 68.5605 611.324 68.8727 611.857 69.4971C612.391 70.1169 612.657 71.0807 612.657 72.3887ZM611.365 72.3887C611.365 71.3678 611.213 70.6273 610.907 70.167C610.606 69.7021 610.098 69.4697 609.383 69.4697C608.663 69.4697 608.141 69.7067 607.817 70.1807C607.498 70.6501 607.339 71.3861 607.339 72.3887C607.339 73.3639 607.496 74.0977 607.811 74.5898C608.13 75.0775 608.629 75.3213 609.308 75.3213C610.046 75.3213 610.572 75.0843 610.887 74.6104C611.206 74.1364 611.365 73.3958 611.365 72.3887ZM615.453 71.8076V76.0938H614.223V70.2764C614.223 69.8434 614.218 69.4971 614.209 69.2373C614.204 68.973 614.195 68.793 614.182 68.6973H615.344C615.353 68.7839 615.36 68.8932 615.364 69.0254C615.373 69.1576 615.38 69.3034 615.385 69.4629C615.389 69.6224 615.394 69.7887 615.398 69.9619H615.419C615.701 69.4515 616.027 69.0915 616.396 68.8818C616.77 68.6676 617.233 68.5605 617.784 68.5605C618.595 68.5605 619.188 68.7679 619.562 69.1826C619.94 69.5973 620.129 70.2581 620.129 71.165V76.0938H618.892V71.4043C618.892 70.6979 618.778 70.2057 618.55 69.9277C618.322 69.6497 617.928 69.5107 617.367 69.5107C616.775 69.5107 616.308 69.7135 615.966 70.1191C615.624 70.5247 615.453 71.0876 615.453 71.8076ZM627.396 72.0947V76.0938H626.09V66.4619H630.622C631.707 66.4619 632.543 66.7057 633.131 67.1934C633.723 67.6764 634.02 68.3509 634.02 69.2168C634.02 69.9323 633.81 70.5339 633.391 71.0215C632.976 71.5091 632.402 71.8167 631.668 71.9443L634.402 76.0938H632.898L630.396 72.0947H627.396ZM632.707 69.2305C632.707 68.6699 632.516 68.2438 632.133 67.9521C631.755 67.6559 631.208 67.5078 630.492 67.5078H627.396V71.0625H630.547C631.235 71.0625 631.766 70.903 632.14 70.584C632.518 70.2604 632.707 69.8092 632.707 69.2305ZM637.889 76.2305C637.146 76.2305 636.588 76.0345 636.214 75.6426C635.84 75.2507 635.653 74.7129 635.653 74.0293C635.653 73.2637 635.904 72.6758 636.405 72.2656C636.911 71.8555 637.725 71.6367 638.846 71.6094L640.507 71.582V71.1787C640.507 70.5771 640.379 70.1465 640.124 69.8867C639.869 69.627 639.468 69.4971 638.921 69.4971C638.369 69.4971 637.968 69.5905 637.718 69.7773C637.467 69.9642 637.317 70.2627 637.267 70.6729L635.981 70.5566C636.191 69.2259 637.18 68.5605 638.948 68.5605C639.878 68.5605 640.577 68.7747 641.047 69.2031C641.516 69.627 641.751 70.2422 641.751 71.0488V74.2344C641.751 74.599 641.799 74.8747 641.895 75.0615C641.99 75.2438 642.173 75.335 642.441 75.335C642.569 75.335 642.703 75.319 642.845 75.2871V76.0527C642.69 76.0892 642.533 76.1165 642.373 76.1348C642.214 76.153 642.054 76.1621 641.895 76.1621C641.439 76.1621 641.106 76.0436 640.896 75.8066C640.691 75.5651 640.575 75.1891 640.548 74.6787H640.507C640.192 75.2438 639.826 75.6449 639.406 75.8818C638.992 76.1143 638.486 76.2305 637.889 76.2305ZM640.507 72.4434L639.16 72.4707C638.586 72.4753 638.148 72.5345 637.848 72.6484C637.547 72.7578 637.317 72.9264 637.157 73.1543C636.998 73.3822 636.918 73.6807 636.918 74.0498C636.918 74.4508 637.025 74.7607 637.239 74.9795C637.458 75.1982 637.768 75.3076 638.169 75.3076C638.625 75.3076 639.026 75.2051 639.372 75C639.723 74.7949 639.999 74.5146 640.199 74.1592C640.404 73.7992 640.507 73.43 640.507 73.0518V72.4434ZM646.639 76.0391C646.238 76.1484 645.823 76.2031 645.395 76.2031C644.902 76.2031 644.533 76.0641 644.287 75.7861C644.041 75.5036 643.918 75.0843 643.918 74.5283V69.5928H643.063V68.6973H643.966L644.328 67.043H645.148V68.6973H646.516V69.5928H645.148V74.2617C645.148 74.6172 645.205 74.8678 645.319 75.0137C645.438 75.1549 645.641 75.2256 645.928 75.2256C646.083 75.2256 646.32 75.1937 646.639 75.1299V76.0391ZM648.635 72.6553C648.635 73.5029 648.81 74.1569 649.161 74.6172C649.512 75.0775 650.025 75.3076 650.699 75.3076C651.232 75.3076 651.659 75.2005 651.978 74.9863C652.301 74.7721 652.52 74.501 652.634 74.1729L653.714 74.4805C653.272 75.6471 652.267 76.2305 650.699 76.2305C649.605 76.2305 648.771 75.9046 648.197 75.2529C647.628 74.6012 647.343 73.6328 647.343 72.3477C647.343 71.1263 647.628 70.1898 648.197 69.5381C648.771 68.8864 649.59 68.5605 650.651 68.5605C651.741 68.5605 652.556 68.8887 653.099 69.5449C653.641 70.2012 653.912 71.1833 653.912 72.4912V72.6553H648.635ZM652.641 71.7119C652.572 70.9326 652.374 70.3652 652.046 70.0098C651.718 69.6497 651.246 69.4697 650.631 69.4697C650.034 69.4697 649.56 69.6702 649.209 70.0713C648.863 70.4678 648.676 71.0146 648.648 71.7119H652.641Z" fill="#64808C"/>
</g>
<g filter="url(#filter3_dd_119_293)">
<mask id="path-15-inside-3_119_293" fill="white">
<path d="M20 565.809C20 556.973 27.1634 549.809 36 549.809H129.399C138.236 549.809 145.399 556.973 145.399 565.809V639.99C145.399 648.826 138.236 655.99 129.399 655.99H36C27.1634 655.99 20 648.826 20 639.99V565.809Z"/>
</mask>
<path d="M20 565.809C20 556.973 27.1634 549.809 36 549.809H129.399C138.236 549.809 145.399 556.973 145.399 565.809V639.99C145.399 648.826 138.236 655.99 129.399 655.99H36C27.1634 655.99 20 648.826 20 639.99V565.809Z" fill="white" shape-rendering="crispEdges"/>
<path d="M36 549.809V550.92H129.399V549.809V548.698H36V549.809ZM145.399 565.809H144.288V639.99H145.399H146.51V565.809H145.399ZM129.399 655.99V654.879H36V655.99V657.101H129.399V655.99ZM20 639.99H21.1111V565.809H20H18.8889V639.99H20ZM36 655.99V654.879C27.7771 654.879 21.1111 648.213 21.1111 639.99H20H18.8889C18.8889 649.44 26.5498 657.101 36 657.101V655.99ZM145.399 639.99H144.288C144.288 648.213 137.622 654.879 129.399 654.879V655.99V657.101C138.85 657.101 146.51 649.44 146.51 639.99H145.399ZM129.399 549.809V550.92C137.622 550.92 144.288 557.586 144.288 565.809H145.399H146.51C146.51 556.359 138.85 548.698 129.399 548.698V549.809ZM36 549.809V548.698C26.5498 548.698 18.8889 556.359 18.8889 565.809H20H21.1111C21.1111 557.586 27.7771 550.92 36 550.92V549.809Z" fill="#E2E8F0" mask="url(#path-15-inside-3_119_293)"/>
<path d="M60.9541 596.63V599.691H46.9941V596.63H52.1064V582.552L47.1553 585.643V582.406L52.3262 579.052H56.2227V596.63H60.9541ZM75.5732 595.487V599.691H71.6475V595.487H62.2578V592.396L70.9736 579.052H75.5732V592.426H78.3271V595.487H75.5732ZM65.6123 592.426H71.6475V585.673C71.6475 585.145 71.6621 584.574 71.6914 583.959C71.7305 583.344 71.7598 582.948 71.7793 582.772C71.6523 583.046 71.4717 583.383 71.2373 583.783C71.0127 584.174 70.7344 584.628 70.4023 585.145L65.6123 592.426ZM94.3525 592.821C94.3525 595.009 93.6689 596.752 92.3018 598.051C90.9443 599.34 89.0791 599.984 86.7061 599.984C84.6357 599.984 82.9756 599.52 81.7256 598.593C80.4854 597.655 79.7188 596.302 79.4258 594.535L83.542 594.198C83.7568 595.077 84.1377 595.717 84.6846 596.117C85.2314 596.517 85.9199 596.718 86.75 596.718C87.7754 596.718 88.5908 596.39 89.1963 595.736C89.8115 595.082 90.1191 594.139 90.1191 592.909C90.1191 591.825 89.8311 590.961 89.2549 590.316C88.6787 589.662 87.873 589.335 86.8379 589.335C86.2715 589.335 85.7539 589.447 85.2852 589.672C84.8164 589.886 84.4014 590.219 84.04 590.668H80.0264L80.7441 579.052H93.1514V582.113H84.4795L84.1426 587.328C85.1387 586.449 86.3838 586.01 87.8779 586.01C89.1865 586.01 90.3242 586.288 91.291 586.844C92.2676 587.391 93.0195 588.173 93.5469 589.188C94.084 590.204 94.3525 591.415 94.3525 592.821ZM105.617 591.356V597.333H102.307V591.356H96.4619V588.075H102.307V582.098H105.617V588.075H111.506V591.356H105.617Z" fill="#0A4D5C"/>
<path d="M47.5928 623.086L46.4854 625.903H45.1318L49.0625 616.271H50.5459L54.415 625.903H53.082L51.9814 623.086H47.5928ZM49.7871 617.255C49.7096 617.511 49.6162 617.795 49.5068 618.11C49.402 618.42 49.304 618.693 49.2129 618.93L47.9893 622.068H51.5918L50.3545 618.889C50.2907 618.73 50.2064 618.504 50.1016 618.212C49.9967 617.921 49.8919 617.602 49.7871 617.255ZM58.2227 626.04C57.1882 626.04 56.3975 625.714 55.8506 625.062C55.3083 624.406 55.0371 623.451 55.0371 622.198C55.0371 620.954 55.3105 620.006 55.8574 619.354C56.4043 618.698 57.1882 618.37 58.209 618.37C58.9655 618.37 59.5921 618.566 60.0889 618.958C60.5902 619.349 60.9046 619.889 61.0322 620.578L59.7676 620.673C59.7038 620.263 59.542 619.937 59.2822 619.696C59.0225 619.454 58.6533 619.333 58.1748 619.333C57.5231 619.333 57.0514 619.55 56.7598 619.983C56.4681 620.416 56.3223 621.145 56.3223 622.17C56.3223 623.155 56.4772 623.884 56.7871 624.358C57.097 624.832 57.5641 625.069 58.1885 625.069C58.626 625.069 58.9906 624.95 59.2822 624.713C59.5785 624.476 59.7607 624.112 59.8291 623.62L61.0732 623.702C61.0094 624.176 60.8499 624.588 60.5947 624.939C60.3441 625.29 60.016 625.561 59.6104 625.752C59.2093 625.944 58.7467 626.04 58.2227 626.04ZM65.2295 625.848C64.8285 625.958 64.4137 626.012 63.9854 626.012C63.4932 626.012 63.124 625.873 62.8779 625.595C62.6318 625.313 62.5088 624.893 62.5088 624.337V619.402H61.6543V618.506H62.5566L62.9189 616.852H63.7393V618.506H65.1064V619.402H63.7393V624.071C63.7393 624.426 63.7962 624.677 63.9102 624.823C64.0286 624.964 64.2314 625.035 64.5186 625.035C64.6735 625.035 64.9105 625.003 65.2295 624.939V625.848ZM67.5059 615.758V616.934H66.2754V615.758H67.5059ZM67.5059 618.506V625.903H66.2754V618.506H67.5059ZM75.4082 618.506L72.6465 625.903H71.1904L68.5039 618.506H69.8164L71.4434 623.319C71.4753 623.41 71.5299 623.592 71.6074 623.866C71.6849 624.135 71.7874 624.492 71.915 624.939C71.9743 624.761 72.0312 624.577 72.0859 624.385C72.1452 624.189 72.2021 624 72.2568 623.818C72.3161 623.636 72.3708 623.474 72.4209 623.333L74.1025 618.506H75.4082ZM77.3428 622.464C77.3428 623.312 77.5182 623.966 77.8691 624.426C78.2201 624.887 78.7327 625.117 79.4072 625.117C79.9404 625.117 80.3665 625.01 80.6855 624.795C81.0091 624.581 81.2279 624.31 81.3418 623.982L82.4219 624.29C81.9798 625.456 80.9749 626.04 79.4072 626.04C78.3135 626.04 77.4795 625.714 76.9053 625.062C76.3356 624.41 76.0508 623.442 76.0508 622.157C76.0508 620.935 76.3356 619.999 76.9053 619.347C77.4795 618.695 78.2975 618.37 79.3594 618.37C80.4486 618.37 81.2643 618.698 81.8066 619.354C82.349 620.01 82.6201 620.992 82.6201 622.3V622.464H77.3428ZM81.3486 621.521C81.2803 620.742 81.082 620.174 80.7539 619.819C80.4258 619.459 79.9541 619.279 79.3389 619.279C78.7419 619.279 78.2679 619.479 77.917 619.88C77.5706 620.277 77.3838 620.824 77.3564 621.521H81.3486ZM92.1426 626.04C91.3542 626.04 90.666 625.894 90.0781 625.602C89.4902 625.31 89.0345 624.893 88.7109 624.351C88.3874 623.809 88.2256 623.159 88.2256 622.403V616.271H89.5312V622.293C89.5312 623.173 89.7546 623.841 90.2012 624.296C90.6478 624.752 91.2926 624.98 92.1357 624.98C93.0016 624.98 93.6738 624.745 94.1523 624.276C94.6354 623.802 94.877 623.111 94.877 622.205V616.271H96.1758V622.28C96.1758 623.059 96.0094 623.729 95.6768 624.29C95.3486 624.85 94.8815 625.283 94.2754 625.588C93.6738 625.889 92.9629 626.04 92.1426 626.04ZM103.757 623.859C103.757 624.556 103.493 625.094 102.964 625.472C102.44 625.85 101.704 626.04 100.756 626.04C99.8353 626.04 99.1243 625.889 98.623 625.588C98.1263 625.283 97.8027 624.809 97.6523 624.167L98.7393 623.955C98.8441 624.351 99.0605 624.643 99.3887 624.83C99.7168 625.012 100.173 625.103 100.756 625.103C101.38 625.103 101.836 625.007 102.123 624.816C102.415 624.625 102.561 624.337 102.561 623.955C102.561 623.663 102.46 623.426 102.26 623.244C102.059 623.061 101.736 622.911 101.289 622.792C100.76 622.651 100.339 622.535 100.024 622.444C99.7145 622.353 99.4753 622.275 99.3066 622.211C99.138 622.143 99.0036 622.079 98.9033 622.02C98.6025 621.847 98.3678 621.635 98.1992 621.384C98.0306 621.134 97.9463 620.826 97.9463 620.461C97.9463 619.787 98.1855 619.274 98.6641 618.923C99.1471 618.568 99.849 618.39 100.77 618.39C101.585 618.39 102.232 618.534 102.711 618.821C103.194 619.108 103.499 619.568 103.627 620.202L102.52 620.338C102.451 620.01 102.267 619.76 101.966 619.586C101.67 619.409 101.271 619.32 100.77 619.32C100.214 619.32 99.8034 619.404 99.5391 619.573C99.2747 619.741 99.1426 619.997 99.1426 620.338C99.1426 620.589 99.2178 620.796 99.3682 620.96C99.5186 621.12 99.8057 621.252 100.229 621.357C100.799 621.494 101.341 621.644 101.856 621.808C102.371 621.968 102.741 622.127 102.964 622.287C103.224 622.473 103.42 622.694 103.552 622.95C103.688 623.2 103.757 623.503 103.757 623.859ZM106.149 622.464C106.149 623.312 106.325 623.966 106.676 624.426C107.027 624.887 107.539 625.117 108.214 625.117C108.747 625.117 109.173 625.01 109.492 624.795C109.816 624.581 110.035 624.31 110.148 623.982L111.229 624.29C110.786 625.456 109.782 626.04 108.214 626.04C107.12 626.04 106.286 625.714 105.712 625.062C105.142 624.41 104.857 623.442 104.857 622.157C104.857 620.935 105.142 619.999 105.712 619.347C106.286 618.695 107.104 618.37 108.166 618.37C109.255 618.37 110.071 618.698 110.613 619.354C111.156 620.01 111.427 620.992 111.427 622.3V622.464H106.149ZM110.155 621.521C110.087 620.742 109.889 620.174 109.561 619.819C109.232 619.459 108.761 619.279 108.146 619.279C107.549 619.279 107.075 619.479 106.724 619.88C106.377 620.277 106.19 620.824 106.163 621.521H110.155ZM114.257 622.047V625.903H113.026V620.229C113.026 619.969 113.022 619.696 113.013 619.409C113.008 619.122 112.999 618.821 112.985 618.506H114.147C114.157 618.716 114.163 618.905 114.168 619.074C114.177 619.242 114.184 619.39 114.188 619.518C114.193 619.641 114.195 619.746 114.195 619.833C114.2 619.915 114.202 619.976 114.202 620.017H114.229C114.366 619.57 114.517 619.224 114.681 618.978C114.84 618.75 115.022 618.593 115.228 618.506C115.433 618.415 115.686 618.37 115.986 618.37C116.155 618.37 116.321 618.392 116.485 618.438V619.566C116.33 619.52 116.112 619.498 115.829 619.498C115.319 619.498 114.929 619.719 114.66 620.161C114.391 620.598 114.257 621.227 114.257 622.047ZM123.212 623.859C123.212 624.556 122.948 625.094 122.419 625.472C121.895 625.85 121.159 626.04 120.211 626.04C119.29 626.04 118.579 625.889 118.078 625.588C117.581 625.283 117.258 624.809 117.107 624.167L118.194 623.955C118.299 624.351 118.516 624.643 118.844 624.83C119.172 625.012 119.628 625.103 120.211 625.103C120.835 625.103 121.291 625.007 121.578 624.816C121.87 624.625 122.016 624.337 122.016 623.955C122.016 623.663 121.915 623.426 121.715 623.244C121.514 623.061 121.191 622.911 120.744 622.792C120.215 622.651 119.794 622.535 119.479 622.444C119.17 622.353 118.93 622.275 118.762 622.211C118.593 622.143 118.459 622.079 118.358 622.02C118.058 621.847 117.823 621.635 117.654 621.384C117.486 621.134 117.401 620.826 117.401 620.461C117.401 619.787 117.641 619.274 118.119 618.923C118.602 618.568 119.304 618.39 120.225 618.39C121.04 618.39 121.688 618.534 122.166 618.821C122.649 619.108 122.954 619.568 123.082 620.202L121.975 620.338C121.906 620.01 121.722 619.76 121.421 619.586C121.125 619.409 120.726 619.32 120.225 619.32C119.669 619.32 119.258 619.404 118.994 619.573C118.73 619.741 118.598 619.997 118.598 620.338C118.598 620.589 118.673 620.796 118.823 620.96C118.974 621.12 119.261 621.252 119.685 621.357C120.254 621.494 120.797 621.644 121.312 621.808C121.826 621.968 122.196 622.127 122.419 622.287C122.679 622.473 122.875 622.694 123.007 622.95C123.144 623.2 123.212 623.503 123.212 623.859Z" fill="#64808C"/>
</g>
<defs>
<filter id="filter0_d_119_293" x="5.99316" y="10.9932" width="684.003" height="684.003" filterUnits="userSpaceOnUse" color-interpolation-filters="sRGB">
<feFlood flood-opacity="0" result="BackgroundImageFix"/>
<feColorMatrix in="SourceAlpha" type="matrix" values="0 0 0 0 0 0 0 0 0 0 0 0 0 0 0 0 0 0 127 0" result="hardAlpha"/>
<feMorphology radius="12" operator="erode" in="SourceAlpha" result="effect1_dropShadow_119_293"/>
<feOffset dy="25"/>
<feGaussianBlur stdDeviation="25"/>
<feComposite in2="hardAlpha" operator="out"/>
<feColorMatrix type="matrix" values="0 0 0 0 0 0 0 0 0 0 0 0 0 0 0 0 0 0 0.25 0"/>
<feBlend mode="normal" in2="BackgroundImageFix" result="effect1_dropShadow_119_293"/>
<feBlend mode="normal" in="SourceGraphic" in2="effect1_dropShadow_119_293" result="shape"/>
</filter>
<filter id="filter1_dd_119_293" x="73.0903" y="73.0903" width="549.809" height="549.809" filterUnits="userSpaceOnUse" color-interpolation-filters="sRGB">
<feFlood flood-opacity="0" result="BackgroundImageFix"/>
<feColorMatrix in="SourceAlpha" type="matrix" values="0 0 0 0 0 0 0 0 0 0 0 0 0 0 0 0 0 0 127 0" result="hardAlpha"/>
<feMorphology radius="6" operator="erode" in="SourceAlpha" result="effect1_dropShadow_119_293"/>
<feOffset dy="8"/>
<feGaussianBlur stdDeviation="5"/>
<feComposite in2="hardAlpha" operator="out"/>
<feColorMatrix type="matrix" values="0 0 0 0 0 0 0 0 0 0 0 0 0 0 0 0 0 0 0.1 0"/>
<feBlend mode="normal" in2="BackgroundImageFix" result="effect1_dropShadow_119_293"/>
<feColorMatrix in="SourceAlpha" type="matrix" values="0 0 0 0 0 0 0 0 0 0 0 0 0 0 0 0 0 0 127 0" result="hardAlpha"/>
<feMorphology radius="5" operator="erode" in="SourceAlpha" result="effect2_dropShadow_119_293"/>
<feOffset dy="20"/>
<feGaussianBlur stdDeviation="12.5"/>
<feComposite in2="hardAlpha" operator="out"/>
<feColorMatrix type="matrix" values="0 0 0 0 0 0 0 0 0 0 0 0 0 0 0 0 0 0 0.1 0"/>
<feBlend mode="normal" in2="effect1_dropShadow_119_293" result="effect2_dropShadow_119_293"/>
<feBlend mode="normal" in="SourceGraphic" in2="effect2_dropShadow_119_293" result="shape"/>
</filter>
<filter id="filter2_dd_119_293" x="503.507" y="0" width="192.483" height="146.181" filterUnits="userSpaceOnUse" color-interpolation-filters="sRGB">
<feFlood flood-opacity="0" result="BackgroundImageFix"/>
<feColorMatrix in="SourceAlpha" type="matrix" values="0 0 0 0 0 0 0 0 0 0 0 0 0 0 0 0 0 0 127 0" result="hardAlpha"/>
<feMorphology radius="6" operator="erode" in="SourceAlpha" result="effect1_dropShadow_119_293"/>
<feOffset dy="8"/>
<feGaussianBlur stdDeviation="5"/>
<feComposite in2="hardAlpha" operator="out"/>
<feColorMatrix type="matrix" values="0 0 0 0 0 0 0 0 0 0 0 0 0 0 0 0 0 0 0.1 0"/>
<feBlend mode="normal" in2="BackgroundImageFix" result="effect1_dropShadow_119_293"/>
<feColorMatrix in="SourceAlpha" type="matrix" values="0 0 0 0 0 0 0 0 0 0 0 0 0 0 0 0 0 0 127 0" result="hardAlpha"/>
<feMorphology radius="5" operator="erode" in="SourceAlpha" result="effect2_dropShadow_119_293"/>
<feOffset dy="20"/>
<feGaussianBlur stdDeviation="12.5"/>
<feComposite in2="hardAlpha" operator="out"/>
<feColorMatrix type="matrix" values="0 0 0 0 0 0 0 0 0 0 0 0 0 0 0 0 0 0 0.1 0"/>
<feBlend mode="normal" in2="effect1_dropShadow_119_293" result="effect2_dropShadow_119_293"/>
<feBlend mode="normal" in="SourceGraphic" in2="effect2_dropShadow_119_293" result="shape"/>
</filter>
<filter id="filter3_dd_119_293" x="0" y="549.809" width="165.399" height="146.181" filterUnits="userSpaceOnUse" color-interpolation-filters="sRGB">
<feFlood flood-opacity="0" result="BackgroundImageFix"/>
<feColorMatrix in="SourceAlpha" type="matrix" values="0 0 0 0 0 0 0 0 0 0 0 0 0 0 0 0 0 0 127 0" result="hardAlpha"/>
<feMorphology radius="6" operator="erode" in="SourceAlpha" result="effect1_dropShadow_119_293"/>
<feOffset dy="8"/>
<feGaussianBlur stdDeviation="5"/>
<feComposite in2="hardAlpha" operator="out"/>
<feColorMatrix type="matrix" values="0 0 0 0 0 0 0 0 0 0 0 0 0 0 0 0 0 0 0.1 0"/>
<feBlend mode="normal" in2="BackgroundImageFix" result="effect1_dropShadow_119_293"/>
<feColorMatrix in="SourceAlpha" type="matrix" values="0 0 0 0 0 0 0 0 0 0 0 0 0 0 0 0 0 0 127 0" result="hardAlpha"/>
<feMorphology radius="5" operator="erode" in="SourceAlpha" result="effect2_dropShadow_119_293"/>
<feOffset dy="20"/>
<feGaussianBlur stdDeviation="12.5"/>
<feComposite in2="hardAlpha" operator="out"/>
<feColorMatrix type="matrix" values="0 0 0 0 0 0 0 0 0 0 0 0 0 0 0 0 0 0 0.1 0"/>
<feBlend mode="normal" in2="effect1_dropShadow_119_293" result="effect2_dropShadow_119_293"/>
<feBlend mode="normal" in="SourceGraphic" in2="effect2_dropShadow_119_293" result="shape"/>
</filter>
<linearGradient id="paint0_linear_119_293" x1="347.995" y1="23.9932" x2="347.995" y2="631.997" gradientUnits="userSpaceOnUse">
<stop stop-color="#E8F4F8"/>
<stop offset="1" stop-color="white"/>
</linearGradient>
<linearGradient id="paint1_linear_119_293" x1="347.995" y1="105.087" x2="347.995" y2="550.903" gradientUnits="userSpaceOnUse">
<stop stop-color="#0A4D5C"/>
<stop offset="1" stop-color="#0D6179"/>
</linearGradient>
</defs>
</svg>
